<?xml version="1.0" standalone="no"?>
<!DOCTYPE svg PUBLIC "-//W3C//DTD SVG 20010904//EN"
 "http://www.w3.org/TR/2001/REC-SVG-20010904/DTD/svg10.dtd">
<svg version="1.0" xmlns="http://www.w3.org/2000/svg"
 width="463.000000pt" height="539.000000pt" viewBox="0 0 463.000000 539.000000"
 preserveAspectRatio="xMidYMid meet">

<g transform="translate(0.000000,539.000000) scale(0.100000,-0.100000)"
fill="#000000" stroke="none">
<path d="M2680 4820 c0 -5 3 -9 8 -8 8 3 59 -29 81 -50 7 -7 34 -24 60 -38 25
-14 64 -36 86 -48 22 -13 78 -43 125 -68 163 -87 243 -131 250 -138 3 -3 30
-18 60 -34 30 -16 69 -39 85 -51 17 -11 45 -27 63 -34 17 -8 32 -17 32 -21 0
-4 22 -19 50 -34 27 -15 55 -33 63 -40 7 -7 26 -20 42 -29 17 -9 24 -16 17
-17 -15 0 -54 19 -62 30 -3 4 -31 22 -62 39 -31 18 -62 39 -68 46 -7 8 -18 15
-26 15 -7 0 -19 6 -26 13 -7 8 -38 28 -68 44 -142 80 -182 103 -196 118 -9 8
-22 15 -29 15 -8 0 -34 14 -58 30 -25 17 -50 30 -56 30 -7 0 -37 16 -67 35
-30 19 -60 35 -68 35 -7 0 -24 8 -37 19 -32 25 -90 54 -96 48 -2 -3 7 -11 21
-19 13 -7 73 -40 133 -72 59 -33 133 -73 163 -89 153 -82 173 -96 162 -111
-14 -19 -54 -136 -50 -148 5 -14 48 97 48 122 0 10 4 21 10 25 14 9 116 -47
280 -154 102 -67 132 -81 176 -81 l34 0 -21 -51 c-11 -29 -18 -57 -16 -63 2
-6 12 14 22 44 10 30 20 60 22 67 3 6 -5 14 -17 18 -27 9 -138 73 -165 95 -11
9 -62 41 -113 71 -50 30 -120 70 -155 91 -34 20 -87 50 -117 66 -132 71 -176
95 -195 108 -11 8 -25 14 -32 14 -6 0 -32 14 -56 30 -25 17 -48 30 -52 30 -10
0 -143 89 -150 101 -8 12 -35 12 -35 -1z"/>
<path d="M2643 4805 c-3 -9 -3 -19 1 -22 3 -4 6 -1 6 5 0 16 28 4 72 -31 21
-17 41 -28 44 -25 3 3 -6 14 -21 25 -14 10 -39 28 -55 41 -33 26 -39 27 -47 7z"/>
<path d="M2621 4729 c-1 -3 -12 -37 -26 -75 -34 -95 -31 -105 6 -15 16 40 28
79 25 85 -2 6 -5 8 -5 5z"/>
<path d="M2532 4459 c-30 -85 -28 -99 4 -24 13 33 23 66 22 74 -2 8 -13 -14
-26 -50z"/>
<path d="M2472 4270 c-12 -35 -20 -65 -18 -67 2 -2 10 13 16 34 7 21 17 43 22
50 5 7 8 20 6 29 -2 9 -13 -11 -26 -46z"/>
<path d="M3173 4177 c-31 -91 -52 -174 -34 -132 37 83 81 225 69 225 -2 0 -17
-42 -35 -93z"/>
<path d="M3675 4095 c-15 -42 -25 -78 -23 -81 3 -2 14 22 26 53 27 76 34 103
29 103 -2 0 -17 -34 -32 -75z"/>
<path d="M2411 4085 c-26 -74 -35 -77 -126 -50 -135 41 -244 55 -439 55 -140
0 -208 -4 -251 -15 -78 -20 -165 -56 -165 -68 0 -6 5 -5 13 0 18 15 141 50
220 64 150 25 484 -5 668 -60 l56 -17 27 74 c15 40 26 75 24 78 -3 2 -15 -25
-27 -61z"/>
<path d="M1798 4023 c23 -2 59 -2 80 0 20 2 1 4 -43 4 -44 0 -61 -2 -37 -4z"/>
<path d="M1605 4004 c-41 -15 -68 -34 -48 -34 7 0 24 5 40 12 15 7 55 17 88
24 l60 12 -50 0 c-27 0 -68 -6 -90 -14z"/>
<path d="M1965 4010 c116 -19 284 -60 331 -82 l52 -23 -17 -37 -16 -37 -75 30
c-41 16 -86 29 -100 28 -24 0 -24 -1 -3 -9 11 -5 58 -20 103 -34 l82 -25 24
55 c24 54 33 94 15 65 -7 -11 -15 -12 -42 -2 -85 31 -307 81 -353 80 l-51 -1
50 -8z"/>
<path d="M3102 3964 c-12 -34 -22 -66 -22 -72 0 -6 -14 -46 -30 -88 -17 -42
-29 -84 -28 -93 2 -9 14 13 26 49 13 36 37 102 53 148 17 45 29 90 27 100 -2
9 -13 -10 -26 -44z"/>
<path d="M3701 4013 c-1 -6 -4 -20 -7 -30 -5 -17 -5 -17 6 0 6 10 9 23 6 30
-3 9 -5 9 -5 0z"/>
<path d="M1384 3984 c-16 -13 -33 -23 -39 -24 -13 0 -117 -73 -178 -125 -55
-46 -59 -68 -17 -90 17 -9 30 -20 30 -26 0 -8 5 -7 15 1 11 9 15 9 15 1 0 -6
-7 -14 -15 -17 -8 -4 -15 -12 -15 -20 0 -17 17 -18 23 -1 3 6 6 3 6 -7 1 -18
4 -17 29 7 15 15 33 27 40 27 7 0 12 4 12 10 0 10 139 104 214 144 63 34 65
36 22 26 -19 -4 -37 -5 -40 -2 -4 3 -6 -1 -6 -9 0 -8 -17 -23 -37 -34 -20 -11
-52 -32 -71 -47 -19 -16 -39 -28 -43 -28 -5 0 -17 -8 -27 -17 -30 -29 -72 -63
-77 -63 -3 0 -5 13 -5 29 0 23 9 37 37 58 21 15 47 36 57 46 11 9 24 17 28 17
5 0 17 8 28 18 35 32 118 72 123 59 3 -7 6 -3 6 9 1 12 11 26 24 33 l22 11
-23 -6 c-14 -3 -39 4 -66 19 l-44 24 -28 -23z m84 -21 c22 -8 21 -10 -23 -41
-25 -17 -48 -32 -50 -32 -7 0 -147 -100 -163 -117 -8 -8 -23 -11 -36 -8 -15 5
-17 4 -7 -3 17 -12 -1 -24 -23 -16 -19 7 -21 24 -3 24 9 0 8 3 -2 9 -12 7 -11
12 1 30 16 23 99 91 110 91 5 0 29 15 55 33 71 48 86 55 103 47 8 -5 25 -12
38 -17z"/>
<path d="M3611 3894 c-13 -36 -21 -67 -18 -70 3 -3 15 25 27 61 29 86 21 93
-9 9z"/>
<path d="M3667 3916 c-9 -27 -17 -57 -17 -65 1 -9 10 9 20 39 11 30 19 59 17
65 -2 5 -11 -12 -20 -39z"/>
<path d="M1641 3925 c-83 -19 -93 -30 -16 -19 72 11 273 12 370 2 l70 -7 -55
15 c-82 22 -291 27 -369 9z"/>
<path d="M2078 3893 c6 -2 18 -2 25 0 6 3 1 5 -13 5 -14 0 -19 -2 -12 -5z"/>
<path d="M3612 3736 c-12 -36 -22 -71 -22 -78 1 -7 12 18 26 57 13 38 23 73
22 77 -2 5 -13 -21 -26 -56z"/>
<path d="M2281 3729 c-11 -28 -21 -57 -21 -63 1 -6 12 15 26 48 14 32 23 60
21 62 -2 3 -14 -19 -26 -47z"/>
<path d="M3552 3708 c-12 -34 -20 -63 -18 -65 2 -2 14 24 26 57 12 33 21 62
19 65 -3 2 -14 -24 -27 -57z"/>
<path d="M2977 3590 c-16 -41 -42 -109 -58 -151 -16 -41 -29 -82 -29 -90 0 -8
-4 -19 -9 -24 -5 -6 -23 -47 -41 -92 -18 -46 -36 -83 -40 -83 -7 0 -68 44
-100 72 -9 7 -51 39 -95 70 -44 31 -89 65 -99 77 -11 12 -24 21 -29 21 -6 0
-24 12 -40 28 -31 28 -77 72 -146 135 -23 21 -41 47 -41 59 0 13 -11 0 -31
-37 -17 -31 -28 -59 -25 -62 2 -3 12 10 22 29 9 18 18 35 20 37 1 1 29 -22 61
-53 32 -31 93 -84 136 -118 42 -34 77 -65 77 -70 0 -4 6 -8 13 -8 6 0 28 -14
47 -30 19 -16 40 -30 47 -30 7 0 16 -6 20 -13 4 -8 26 -27 49 -43 22 -16 55
-42 73 -56 l32 -27 -22 -43 c-12 -24 -37 -61 -55 -82 -19 -22 -34 -43 -34 -48
0 -11 59 58 93 108 15 22 27 45 27 52 0 16 -2 16 58 -13 29 -14 57 -25 63 -25
5 0 34 -11 63 -25 68 -32 210 -75 249 -75 51 0 20 14 -56 26 -40 6 -96 23
-126 38 -30 14 -61 26 -68 26 -7 0 -42 14 -76 30 -35 17 -69 30 -75 30 -19 0
-14 26 18 92 17 34 30 68 30 75 0 7 4 21 10 31 17 32 50 111 50 122 0 6 16 50
35 97 20 47 35 93 33 101 -2 9 -16 -17 -31 -58z"/>
<path d="M3552 3543 c-16 -44 -20 -69 -13 -76 7 -7 8 -2 4 13 -5 17 -3 21 7
15 8 -5 11 -4 7 2 -4 6 1 32 9 57 9 26 15 49 12 51 -2 2 -14 -26 -26 -62z"/>
<path d="M3491 3524 c-12 -31 -20 -59 -18 -61 2 -2 14 22 26 53 12 31 20 59
18 61 -2 2 -14 -22 -26 -53z"/>
<path d="M2152 3457 c-12 -13 -22 -27 -22 -32 0 -4 11 4 26 20 14 15 23 29 21
31 -2 2 -13 -6 -25 -19z"/>
<path d="M3510 3420 c0 -6 -9 -29 -19 -50 -20 -43 -17 -48 13 -25 17 13 22 10
60 -28 23 -23 50 -49 61 -57 17 -13 16 -11 -3 17 -29 41 -93 91 -110 86 -13
-5 -7 22 10 44 5 7 5 14 -2 18 -5 3 -10 1 -10 -5z"/>
<path d="M2099 3390 c-9 -5 -24 -22 -34 -37 -16 -25 -14 -24 18 7 45 43 48 49
16 30z"/>
<path d="M3441 3382 c0 -7 -10 -32 -20 -56 -20 -42 -19 -120 0 -132 5 -3 2
-21 -6 -41 -11 -25 -12 -40 -4 -52 8 -13 9 -11 3 8 -4 16 -3 21 5 17 7 -5 8
-1 4 10 -4 11 -3 15 4 11 7 -5 9 1 5 15 -4 19 2 16 36 -16 22 -22 38 -44 36
-48 -5 -7 -86 -53 -119 -67 -5 -2 -2 8 8 22 12 19 14 28 5 33 -7 4 -8 3 -4 -4
4 -7 3 -12 -3 -12 -5 0 -13 -10 -17 -22 -4 -13 -12 -27 -18 -31 -6 -4 3 -5 19
-1 52 11 136 67 154 103 17 32 17 35 0 70 -9 20 -36 54 -59 75 -31 29 -38 41
-28 47 10 7 10 9 0 9 -10 0 -10 5 -2 21 6 11 9 28 7 37 -3 9 -5 11 -6 4z m85
-219 c9 -47 -14 -43 -65 9 -34 36 -41 49 -41 83 l0 40 50 -50 c31 -31 52 -62
56 -82z"/>
<path d="M1694 3348 c-4 -5 -19 -7 -35 -4 -18 3 -29 1 -29 -5 0 -6 -7 -9 -15
-5 -8 3 -15 1 -15 -5 0 -6 -5 -7 -10 -4 -6 4 -17 1 -25 -5 -8 -6 -19 -9 -25
-5 -13 8 -92 -39 -83 -50 5 -4 0 -5 -9 -2 -10 4 -18 2 -18 -4 0 -6 -5 -7 -10
-4 -6 4 -23 -7 -40 -23 -16 -16 -31 -28 -34 -25 -5 5 -88 -68 -150 -133 -26
-26 -42 -50 -37 -53 5 -3 -4 -22 -20 -41 -16 -19 -29 -30 -29 -25 0 4 7 17 17
27 9 10 14 21 10 24 -3 3 -17 -11 -32 -33 -14 -21 -43 -63 -65 -93 -36 -52
-98 -168 -134 -254 -15 -34 -15 -38 -1 -33 8 4 15 2 15 -3 0 -6 -7 -10 -16
-10 -22 0 -47 -65 -38 -102 4 -20 3 -28 -4 -24 -6 4 -9 -10 -6 -36 3 -35 2
-37 -4 -13 -7 26 -9 21 -21 -44 -15 -84 -22 -231 -11 -231 4 0 6 -12 3 -27 -3
-24 -2 -25 6 -8 8 17 10 16 10 -12 1 -27 -4 -33 -34 -44 -19 -7 -35 -16 -35
-21 0 -4 -7 -5 -15 -2 -8 4 -15 1 -15 -5 0 -6 4 -11 10 -11 5 0 24 -12 42 -27
35 -29 45 -36 118 -79 25 -15 57 -35 72 -46 15 -10 48 -30 73 -43 25 -14 66
-37 92 -51 26 -14 60 -34 74 -45 15 -10 32 -19 38 -19 6 0 11 -5 11 -11 0 -5
4 -8 8 -5 5 3 19 -3 32 -12 28 -19 91 -57 170 -101 30 -17 87 -49 125 -71 137
-79 198 -100 245 -82 20 7 14 9 -31 9 -43 0 -67 6 -100 26 -24 15 -62 35 -84
46 -22 11 -67 36 -100 55 -33 19 -82 47 -110 62 -27 14 -57 32 -65 39 -8 8
-29 21 -45 29 -24 13 -26 16 -10 16 29 0 126 48 99 49 -11 1 -24 -2 -28 -6 -4
-4 -28 -15 -53 -25 -44 -17 -47 -17 -73 2 -15 11 -38 24 -51 30 -13 6 -58 30
-99 55 -41 24 -100 57 -131 74 -30 16 -61 36 -68 45 -8 9 -18 16 -23 16 -8 0
-66 41 -102 71 -5 5 10 17 33 27 l43 18 -1 124 c-1 69 -3 141 -5 160 -2 19 -1
26 1 15 4 -17 20 32 62 192 5 17 18 51 29 75 11 24 32 68 46 98 15 30 42 81
61 114 39 64 42 74 20 56 -22 -18 -18 -3 6 23 15 17 19 18 14 5 -4 -11 -2 -18
4 -18 6 0 11 6 11 13 0 15 35 57 135 160 112 116 167 159 269 209 99 50 135
59 241 60 68 0 91 3 70 8 -54 14 -115 18 -121 8z m-389 -195 c-28 -26 -69 -66
-92 -90 -24 -23 -43 -38 -43 -34 0 12 166 171 179 171 3 0 -17 -21 -44 -47z
m-203 -225 c-7 -7 -12 -8 -12 -2 0 14 12 26 19 19 2 -3 -1 -11 -7 -17z m-65
-96 c-8 -9 -22 -30 -30 -47 -9 -16 -16 -25 -17 -19 0 6 11 28 25 48 14 20 25
42 26 49 0 8 2 8 6 -1 3 -7 -2 -21 -10 -30z m-67 -122 c-6 -11 -13 -20 -16
-20 -2 0 0 9 6 20 6 11 13 20 16 20 2 0 0 -9 -6 -20z m-20 -38 c0 -5 -7 -17
-15 -28 -14 -18 -14 -17 -4 9 12 27 19 34 19 19z m-67 -172 c-3 -12 -8 -19
-11 -16 -5 6 5 36 12 36 2 0 2 -9 -1 -20z m-46 -227 c-3 -10 -5 -4 -5 12 0 17
2 24 5 18 2 -7 2 -21 0 -30z"/>
<path d="M1860 3324 c8 -4 33 -15 54 -25 44 -21 55 -20 29 4 -10 8 -36 18 -58
21 -22 3 -33 3 -25 0z"/>
<path d="M2005 3309 c-11 -17 1 -21 15 -4 8 9 8 15 2 15 -6 0 -14 -5 -17 -11z"/>
<path d="M1975 3280 c-3 -5 -1 -10 4 -10 6 0 11 5 11 10 0 6 -2 10 -4 10 -3 0
-8 -4 -11 -10z"/>
<path d="M1800 3253 c-147 -53 -244 -108 -337 -191 l-52 -46 62 -40 c35 -23
86 -60 113 -82 27 -23 74 -56 104 -75 30 -18 61 -39 68 -46 7 -7 19 -13 26
-13 7 0 33 -13 59 -30 26 -16 53 -30 60 -30 17 1 -21 29 -63 47 -19 8 -54 28
-78 44 -24 16 -45 29 -47 29 -5 0 -104 71 -181 130 -32 25 -67 50 -79 57 -16
10 -17 12 -4 13 17 0 130 48 117 49 -4 1 -31 -8 -59 -19 -28 -12 -54 -19 -56
-16 -4 4 86 76 126 101 110 68 189 99 291 110 l55 7 -25 -21 c-14 -11 -20 -21
-15 -21 6 0 23 11 39 25 l29 25 -69 -1 c-38 0 -76 -3 -84 -6z"/>
<path d="M3656 3188 c8 -50 -10 -100 -48 -129 -18 -13 -73 -45 -122 -72 -50
-26 -80 -45 -66 -41 38 9 100 37 100 45 0 9 59 33 66 26 8 -8 -73 -57 -130
-79 -27 -10 -66 -28 -87 -38 -42 -22 -49 -24 -49 -12 0 5 17 16 38 27 20 10
31 20 24 22 -7 3 -24 -2 -37 -11 -22 -15 -27 -15 -59 1 -41 19 -39 26 16 54
23 12 37 24 31 27 -5 4 -13 14 -17 22 -4 9 -5 6 -2 -7 3 -15 -2 -23 -18 -27
-12 -3 -32 -16 -46 -28 -13 -13 -26 -21 -28 -20 -2 2 -7 1 -10 -3 -4 -4 -2 -5
5 -3 13 3 73 -33 73 -44 0 -4 -9 -9 -19 -13 -11 -3 -36 -19 -56 -35 -21 -17
-42 -30 -46 -30 -13 0 -149 -101 -149 -111 0 -17 16 -9 45 21 16 17 34 30 41
30 6 0 18 7 25 16 7 9 36 29 64 46 27 16 62 38 77 50 15 12 31 18 35 13 5 -4
2 -10 -5 -12 -7 -3 -18 -11 -25 -18 -7 -7 -31 -22 -54 -33 -22 -12 -54 -33
-71 -47 -16 -14 -34 -25 -39 -25 -5 0 -25 -13 -43 -30 -18 -16 -37 -30 -42
-30 -4 0 -8 -5 -8 -11 0 -5 6 -7 13 -3 6 4 1 -5 -13 -21 -21 -23 -22 -26 -5
-17 24 12 61 51 58 61 -2 3 4 6 12 6 8 0 28 15 44 33 17 17 34 32 40 32 5 0
16 6 23 13 20 20 61 47 71 47 5 0 7 -6 4 -13 -3 -8 -2 -19 2 -26 5 -8 15 3 29
32 32 68 110 91 169 48 15 -11 48 -30 72 -43 56 -29 86 -68 78 -100 -6 -24
-101 -98 -125 -98 -6 0 -30 -13 -54 -29 -24 -16 -59 -36 -78 -45 -19 -9 -62
-32 -95 -51 -33 -18 -89 -50 -125 -70 -36 -20 -87 -49 -115 -64 -91 -51 -149
-83 -205 -113 -30 -16 -89 -49 -130 -73 -73 -41 -75 -42 -90 -24 -20 26 -65
21 -93 -9 l-22 -24 38 22 c28 17 41 20 49 12 13 -13 -6 -42 -26 -42 -7 0 -25
-13 -41 -30 -16 -16 -35 -30 -42 -30 -7 0 -13 -3 -13 -7 0 -5 -29 -39 -65 -78
-36 -38 -65 -74 -65 -78 0 -5 -14 -26 -32 -48 -17 -21 -29 -42 -26 -45 3 -3
14 7 25 21 52 76 118 160 126 164 5 2 19 15 31 28 11 14 47 45 79 70 l57 44 0
-55 c0 -54 -1 -56 -40 -81 -22 -14 -46 -34 -52 -45 -7 -11 -17 -20 -21 -20
-10 0 -46 -41 -47 -54 0 -5 8 -2 18 5 14 11 13 10 -2 -9 -20 -23 -32 -30 -20
-11 4 7 1 10 -7 7 -23 -7 -43 -57 -29 -73 8 -9 8 -15 0 -20 -6 -4 -9 -1 -8 6
2 6 -2 13 -8 15 -13 5 -57 -72 -49 -86 4 -6 1 -9 -5 -8 -16 4 -61 -82 -56
-105 2 -9 1 -15 -3 -13 -10 7 -37 -47 -72 -144 -48 -136 -54 -159 -39 -173 10
-9 12 -9 8 2 -5 16 54 71 149 138 32 23 70 54 83 69 29 32 7 22 -45 -21 -84
-67 -101 -81 -131 -102 -31 -21 -44 -21 -44 1 0 6 5 4 10 -4 8 -13 10 -13 10
2 0 9 28 37 63 62 34 25 71 54 81 65 11 12 23 21 27 21 4 0 23 14 41 30 32 30
47 26 33 -8 -13 -29 -15 -72 -5 -72 6 0 10 -8 10 -17 0 -14 -2 -15 -9 -4 -17
27 -25 -13 -25 -119 0 -125 11 -210 25 -189 12 19 12 -2 0 -34 -5 -14 -26 -32
-48 -41 -21 -10 -72 -37 -113 -61 -94 -55 -188 -105 -196 -105 -3 0 -3 12 0
27 3 16 2 34 -2 41 -10 15 -36 -123 -26 -139 3 -6 13 -8 21 -5 8 3 12 2 9 -3
-7 -10 19 -23 28 -14 3 4 1 12 -5 20 -9 10 -8 13 4 13 9 0 19 -4 22 -10 3 -5
15 -10 26 -10 10 0 19 -4 19 -9 0 -5 -9 -7 -19 -4 -18 4 -19 1 -11 -33 10 -43
25 -56 62 -51 15 2 25 0 22 -5 -3 -4 -1 -8 5 -8 5 0 13 5 16 10 4 6 11 8 16 5
5 -3 6 1 3 10 -4 9 -13 14 -22 10 -11 -4 -12 -2 -4 7 7 9 5 19 -8 35 -23 29
-34 30 -20 2 13 -24 7 -49 -13 -49 -9 0 -12 12 -10 40 3 38 1 41 -27 46 -16 4
-30 11 -30 16 0 5 -16 8 -35 5 -22 -3 -35 -1 -35 7 0 11 61 52 135 91 22 12
69 39 105 60 144 85 145 85 171 22 15 -35 24 -47 84 -111 42 -44 122 -102 130
-94 3 2 -6 11 -20 18 -14 7 -25 17 -25 22 0 4 -6 8 -13 8 -21 0 -113 102 -136
153 -13 26 -26 47 -31 47 -4 0 -6 10 -3 23 3 15 2 18 -4 9 -6 -8 -10 66 -9
197 0 120 4 205 9 198 5 -7 6 -1 2 16 -3 16 -2 26 3 23 7 -4 35 72 57 154 5
20 4 22 -5 10 -10 -13 -11 -12 -6 3 3 10 6 21 6 23 0 3 4 3 10 -1 5 -3 20 18
34 48 19 38 23 60 18 80 l-7 28 -30 -30 c-17 -17 -35 -31 -41 -31 -6 0 -18 -7
-25 -16 -8 -9 -28 -26 -45 -38 -17 -11 -54 -37 -80 -56 l-49 -34 32 39 c18 21
30 42 27 47 -3 4 1 6 8 3 7 -2 29 9 48 26 19 17 27 28 17 25 -11 -4 -16 -2
-12 5 4 5 14 7 24 4 17 -5 97 52 86 63 -3 3 7 18 22 34 15 15 22 28 17 28 -14
0 -66 -55 -59 -62 3 -3 -3 -11 -12 -19 -16 -13 -17 -12 -4 4 8 10 9 17 3 17
-11 0 -27 -19 -27 -32 0 -3 -3 -9 -6 -12 -4 -4 -6 2 -5 12 1 20 69 92 86 92 6
0 8 5 4 12 -5 7 -3 8 6 3 8 -5 11 -3 8 6 -2 7 8 24 24 37 25 22 28 30 28 88 0
48 3 62 13 58 7 -2 33 9 58 26 24 16 52 30 61 30 9 0 20 4 23 10 3 5 16 15 27
21 l21 11 -19 -33 c-14 -23 -45 -47 -95 -75 -68 -38 -74 -43 -71 -70 5 -40 12
-44 12 -6 0 22 5 32 15 32 27 0 14 -59 -17 -79 -11 -7 -17 -8 -13 -2 10 18 -4
13 -27 -9 -12 -11 -18 -20 -12 -20 5 0 3 -4 -5 -9 -7 -5 -12 -14 -9 -21 2 -7
13 -4 31 10 16 13 25 16 21 7 -3 -8 -25 -29 -49 -47 -45 -34 -54 -51 -16 -31
17 10 20 9 15 -4 -4 -8 -4 -15 -1 -15 7 0 67 88 67 98 0 4 14 23 30 42 16 19
30 40 30 45 0 6 26 35 58 65 32 32 41 38 21 15 -40 -44 -129 -162 -129 -170 0
-3 -16 -28 -36 -56 -19 -28 -34 -55 -32 -61 4 -10 44 45 57 77 5 13 90 136
107 155 51 59 168 172 211 204 29 22 50 43 47 48 -3 4 1 5 9 3 7 -3 29 5 49
18 19 14 73 37 119 53 98 33 188 37 259 10 72 -28 100 -29 45 -2 -27 14 -71
28 -97 32 -27 4 -45 11 -42 16 4 6 0 14 -7 19 -32 19 36 22 264 11 235 -12
293 -22 252 -44 -8 -5 -12 -14 -9 -20 4 -7 2 -8 -4 -4 -6 4 -9 13 -5 21 4 11
-2 15 -19 15 -32 0 -78 -49 -87 -92 -8 -40 -52 -68 -77 -48 -26 23 -14 -1 14
-25 33 -30 47 -31 49 -5 1 11 -2 18 -8 15 -15 -10 -10 1 7 15 12 11 14 11 12
1 -4 -16 39 -34 47 -21 5 9 -6 14 -26 12 -14 -2 -4 30 15 45 l21 18 -19 -23
c-19 -22 -19 -22 5 -19 13 2 24 8 24 13 0 5 4 14 8 20 11 19 -19 24 -44 7 -16
-10 -14 -5 8 15 17 17 30 32 27 34 -2 3 3 5 11 5 13 0 13 -3 -2 -19 -18 -20
-5 -25 17 -5 12 10 12 9 2 -4 -8 -11 -8 -19 -1 -26 13 -13 -2 -47 -17 -41 -5
1 -10 -11 -12 -29 -3 -32 -29 -51 -60 -44 -17 3 -2 -27 26 -52 22 -20 35 -17
108 32 54 35 84 82 84 127 0 27 -34 84 -51 84 -5 0 -21 13 -36 29 -26 26 -33
28 -98 26 -38 -2 -54 0 -35 3 34 5 34 5 10 13 -22 8 -22 8 8 5 17 -1 32 1 32
6 0 4 -5 8 -11 8 -5 0 -7 5 -4 10 10 16 -47 32 -92 25 -25 -4 -51 -1 -64 5
-15 9 -24 9 -32 1 -6 -6 -18 -11 -27 -11 -27 1 21 23 59 27 54 6 54 6 86 -2
24 -6 28 -5 18 5 -6 7 -31 15 -55 17 -54 6 -55 8 -33 33 11 12 20 39 21 67 4
56 -19 93 -78 126 -36 20 -55 31 -112 64 -18 10 -12 15 53 47 121 59 163 105
174 186 5 32 2 53 -8 70 -15 25 -15 24 -9 -12z m-15 -126 c-13 -24 -40 -46
-47 -39 -4 3 7 17 22 31 35 31 38 31 25 8z m-347 -227 c-4 -8 -11 -12 -16 -9
-6 4 -5 10 3 15 19 12 19 11 13 -6z m-174 -99 c0 -2 -8 -10 -17 -17 -16 -13
-17 -12 -4 4 13 16 21 21 21 13z m503 -61 c-7 -34 -31 -54 -43 -35 -6 10 -2
22 12 37 28 30 36 29 31 -2z m-53 -45 c0 -11 -4 -20 -9 -20 -5 0 -16 -6 -23
-13 -21 -21 -137 -77 -161 -78 -21 0 -21 -1 -2 -9 14 -6 15 -9 5 -9 -9 -1 -21
4 -28 11 -9 9 -15 8 -27 -8 -8 -10 -15 -13 -15 -7 0 13 53 50 111 78 19 9 57
29 84 45 60 35 65 36 65 10z m-55 -70 c-3 -5 -12 -10 -18 -10 -7 0 -6 4 3 10
19 12 23 12 15 0z m94 -26 c-9 -11 -8 -14 2 -14 11 0 11 -2 -1 -10 -8 -5 -33
-9 -55 -9 -22 0 -34 3 -26 6 10 4 10 7 1 13 -7 5 0 14 21 28 25 15 38 18 52
11 14 -8 16 -13 6 -25z m-129 12 c0 -2 -8 -10 -17 -17 -16 -13 -17 -12 -4 4
13 16 21 21 21 13z m233 -7 c-18 -5 -35 -14 -38 -19 -8 -12 -35 -13 -35 -2 0
14 42 31 75 30 l30 0 -32 -9z m-420 -45 c3 -4 -4 -15 -16 -26 -20 -18 -20 -19
-2 -13 31 11 40 11 40 0 0 -5 -18 -10 -40 -11 -59 -1 -116 -14 -110 -24 3 -6
-1 -7 -11 -3 -12 4 -1 14 42 35 33 16 63 34 69 39 11 11 19 11 28 3z m-143
-88 c0 -2 -7 -7 -16 -10 -8 -3 -12 -2 -9 4 6 10 25 14 25 6z m694 -21 c-5 -12
-1 -13 27 -3 44 15 61 -6 47 -62 -12 -44 -34 -68 -67 -72 -36 -5 -47 22 -31
73 8 24 15 48 16 54 2 19 4 25 9 25 2 0 2 -7 -1 -15z m-764 -9 c0 -2 -7 -7
-16 -10 -8 -3 -12 -2 -9 4 6 10 25 14 25 6z m-101 -58 c-2 -2 -17 -14 -34 -28
l-30 -25 24 28 c14 15 29 27 34 27 6 0 8 -1 6 -2z m-86 -62 c7 4 -1 -7 -17
-24 -17 -18 -32 -32 -35 -32 -2 0 6 11 19 25 19 20 20 25 7 25 -21 0 -62 -57
-45 -62 7 -3 5 -7 -6 -11 -15 -6 -17 -4 -12 15 4 13 8 30 10 38 3 17 59 43 64
29 2 -5 9 -6 15 -3z m895 -13 c-9 -10 -13 -25 -11 -33 3 -10 0 -9 -7 3 -6 9
-15 15 -21 12 -5 -4 -9 -4 -9 -1 0 5 49 35 59 36 2 0 -3 -8 -11 -17z m-1051
-119 c-3 -3 -12 -4 -19 -1 -8 3 -5 6 6 6 11 1 17 -2 13 -5z m-50 -36 c-3 -8
-6 -5 -6 6 -1 11 2 17 5 13 3 -3 4 -12 1 -19z m-277 -252 c0 -2 -8 -10 -17
-17 -16 -13 -17 -12 -4 4 13 16 21 21 21 13z m129 -60 c-29 -49 -34 -46 -9 5
12 23 24 39 26 36 3 -2 -5 -21 -17 -41z m-22 12 c-5 -13 -53 -54 -105 -93 -52
-38 -104 -78 -117 -88 -20 -15 -24 -15 -29 -2 -3 8 -2 14 2 13 4 -1 23 13 42
31 36 36 200 159 212 160 3 1 1 -9 -5 -21z m-11 -60 c4 -6 3 -8 -3 -5 -6 4
-16 -7 -23 -23 -7 -16 -24 -42 -38 -57 -28 -30 -38 -57 -19 -50 7 3 11 11 9
18 -3 11 -1 11 9 2 10 -10 8 -18 -11 -38 -13 -14 -29 -25 -36 -25 -7 0 -14 -4
-16 -9 -3 -9 -114 -96 -148 -116 -10 -6 -26 -17 -36 -25 -16 -14 -16 -13 -6 6
6 12 8 24 4 28 -3 4 1 4 10 1 9 -4 19 -1 24 6 4 8 3 10 -4 5 -18 -11 -14 0 5
15 11 10 14 10 9 2 -4 -7 -2 -13 3 -13 6 0 11 9 11 21 0 12 4 18 11 13 6 -3
15 0 20 7 4 8 13 14 18 14 5 0 24 13 43 30 18 16 36 30 41 30 4 0 6 3 5 6 -2
3 3 13 11 22 12 15 11 17 -3 17 -9 0 -16 -4 -16 -9 0 -12 -152 -121 -161 -115
-5 2 -6 11 -3 19 4 8 11 12 17 8 6 -4 8 0 4 11 -4 10 -3 15 3 11 6 -3 10 0 10
7 0 13 72 78 86 78 6 0 19 10 114 90 39 33 46 35 56 18z m-166 -181 c0 -2 -10
-12 -22 -23 l-23 -19 19 23 c18 21 26 27 26 19z m77 -194 c-3 -10 -5 -4 -5 12
0 17 2 24 5 18 2 -7 2 -21 0 -30z m0 -185 c-3 -8 -6 -5 -6 6 -1 11 2 17 5 13
3 -3 4 -12 1 -19z m-252 -417 c3 -5 1 -12 -5 -16 -5 -3 -10 1 -10 9 0 18 6 21
15 7z"/>
<path d="M3850 2325 c-13 -15 -6 -35 13 -35 15 0 38 35 30 44 -11 10 -30 7
-43 -9z m23 -10 c-3 -9 -8 -14 -10 -11 -3 3 -2 9 2 15 9 16 15 13 8 -4z"/>
<path d="M3374 3194 c-4 -10 -16 -39 -26 -62 -11 -24 -17 -46 -15 -48 2 -3 16
23 31 57 15 33 25 63 22 66 -3 3 -9 -3 -12 -13z"/>
<path d="M1770 3176 c-101 -43 -145 -65 -170 -85 l-25 -21 45 14 c67 20 100
38 93 49 -4 6 0 8 10 4 10 -3 17 -2 17 4 0 6 4 7 10 4 9 -5 100 41 100 51 0 9
-28 2 -80 -20z"/>
<path d="M1340 2979 c-37 -33 -27 -30 29 8 19 13 28 23 20 23 -8 0 -30 -14
-49 -31z"/>
<path d="M2635 2924 c-16 -15 -51 -40 -77 -56 -27 -17 -47 -33 -43 -36 3 -3
25 9 49 26 24 18 48 32 53 33 8 0 58 59 50 59 -2 0 -17 -12 -32 -26z"/>
<path d="M1273 2918 c-31 -35 -40 -56 -14 -33 21 18 46 55 38 55 -2 0 -13 -10
-24 -22z"/>
<path d="M3157 2920 c-14 -12 -36 -26 -49 -33 -73 -40 -148 -94 -162 -118 -9
-15 -16 -47 -15 -71 0 -23 3 -37 6 -30 4 10 8 9 17 -3 10 -15 14 -14 36 6 l25
22 -27 -7 c-18 -4 -28 -2 -28 4 0 6 -4 8 -10 5 -6 -4 -10 7 -10 26 0 26 2 29
14 19 8 -6 13 -17 10 -25 -3 -7 -1 -16 5 -20 6 -3 11 -1 11 5 0 7 7 10 15 6
27 -10 16 9 -16 28 l-32 19 34 31 c36 34 69 55 162 107 31 17 57 36 57 40 0
15 -16 10 -43 -11z"/>
<path d="M1205 2799 c-9 -17 -14 -33 -11 -36 3 -3 10 7 16 22 6 15 13 32 16
36 3 5 3 9 0 9 -3 0 -13 -14 -21 -31z"/>
<path d="M2475 2821 c-11 -3 -41 -17 -66 -29 -25 -13 -95 -38 -155 -57 -62
-19 -97 -34 -81 -34 15 -1 53 8 85 20 31 11 85 30 120 41 34 12 62 25 62 29 0
5 6 9 13 9 7 0 22 7 33 15 21 16 19 16 -11 6z"/>
<path d="M3232 2760 c-14 -18 -20 -35 -15 -46 4 -11 3 -15 -4 -11 -6 4 -25 -8
-42 -25 -18 -18 -27 -34 -22 -36 11 -4 -19 -37 -54 -62 -11 -8 -6 1 10 19 21
24 24 31 10 23 -23 -12 -60 -53 -60 -66 0 -12 -45 -41 -45 -28 0 5 7 13 16 16
9 4 14 9 12 12 -3 3 -23 -7 -44 -22 -39 -26 -39 -27 -9 -21 l30 6 -33 -15
c-18 -8 -37 -12 -42 -9 -12 7 -100 -36 -94 -47 3 -4 2 -8 -3 -9 -48 -3 -75
-11 -117 -31 -37 -19 -45 -26 -32 -31 11 -5 15 -3 10 5 -5 8 0 9 15 5 22 -5
134 35 156 56 7 7 5 7 -4 2 -10 -6 -12 -4 -7 4 4 6 16 9 27 6 19 -6 146 55
185 89 50 43 124 116 124 122 0 4 -9 -1 -20 -11 -11 -10 -20 -14 -20 -8 0 13
35 45 42 38 3 -3 18 9 32 26 21 25 24 34 14 40 -12 8 -4 13 14 10 4 0 5 6 2
14 -7 18 -4 20 -32 -15z m-1 -33 c-10 -9 -11 -8 -5 6 3 10 9 15 12 12 3 -3 0
-11 -7 -18z m-305 -252 c-11 -8 -25 -15 -30 -15 -6 1 0 7 14 15 32 19 40 18
16 0z m-145 -65 c-24 -11 -46 -20 -50 -20 -12 1 64 39 79 39 8 0 -5 -8 -29
-19z"/>
<path d="M1939 2683 l24 -16 -34 -18 c-41 -22 -35 -24 18 -5 42 15 42 15 221
-105 23 -16 50 -29 59 -29 9 0 0 11 -21 25 -20 14 -39 25 -43 25 -5 0 -139 86
-155 99 -4 4 2 8 15 9 12 1 38 6 57 11 l35 9 -35 0 c-19 0 -46 -3 -60 -7 -15
-4 -38 -2 -57 6 -44 18 -52 16 -24 -4z"/>
<path d="M1136 2646 c-14 -25 -26 -49 -26 -54 0 -5 -14 -39 -31 -76 -17 -36
-29 -73 -27 -83 2 -11 13 6 27 42 38 98 54 135 58 132 1 -2 -4 -25 -13 -51 -9
-26 -14 -49 -11 -52 3 -3 12 20 21 51 l17 56 26 -21 c14 -11 31 -20 38 -20 6
0 20 -10 31 -21 17 -20 100 -78 149 -104 11 -6 33 -20 49 -31 32 -21 96 -55
193 -102 37 -18 62 -36 60 -44 -2 -7 -2 -10 0 -6 6 10 33 -2 86 -39 26 -18 51
-33 56 -33 4 0 25 -13 46 -30 21 -16 43 -30 50 -30 6 0 31 -13 56 -29 24 -16
55 -32 69 -36 34 -10 16 6 -40 36 -25 13 -82 46 -128 74 -45 27 -95 57 -110
65 -15 8 -38 23 -51 32 -23 16 -23 18 -7 51 9 19 16 42 16 50 0 8 13 41 30 73
34 68 35 71 16 55 -8 -7 -31 -55 -51 -107 -41 -107 -39 -106 -125 -56 -25 14
-62 35 -82 47 -20 11 -63 35 -95 52 -32 18 -76 46 -98 62 -22 16 -70 50 -107
75 -64 45 -66 48 -61 81 3 19 3 35 0 35 -3 0 -17 -20 -31 -44z"/>
<path d="M1848 2592 c-45 -45 -51 -66 -7 -25 26 24 56 64 47 63 -2 -1 -20 -18
-40 -38z"/>
<path d="M2931 2600 c-24 -17 -40 -30 -35 -30 5 0 29 14 54 30 25 16 41 30 35
30 -5 0 -30 -14 -54 -30z"/>
<path d="M2805 2534 c-22 -13 -33 -24 -25 -24 8 1 33 12 55 25 22 14 33 24 25
24 -8 0 -33 -12 -55 -25z"/>
<path d="M2256 2499 c9 -15 85 -49 109 -48 12 0 3 8 -25 21 -77 34 -92 39 -84
27z"/>
<path d="M2670 2475 c-58 -31 -40 -31 25 0 28 13 43 24 35 24 -8 0 -35 -11
-60 -24z"/>
<path d="M2417 2435 c38 -18 50 -34 32 -46 -25 -16 0 -9 66 17 36 15 64 28 62
31 -3 2 -23 -4 -46 -13 -36 -14 -44 -15 -64 -2 -12 8 -35 18 -52 21 l-30 6 32
-14z"/>
<path d="M1086 2412 c-4 -18 -11 -30 -16 -27 -4 3 -6 -5 -3 -17 4 -19 3 -20
-6 -8 -9 12 -10 10 -5 -11 3 -17 1 -30 -7 -35 -8 -5 -11 -3 -7 7 3 8 2 22 -1
32 -5 13 -14 -5 -31 -60 -13 -43 -32 -95 -43 -117 -10 -21 -14 -35 -8 -31 6 3
11 0 11 -7 0 -10 3 -9 9 2 6 8 8 17 5 21 -2 4 3 9 11 12 15 7 49 66 41 74 -2
3 -14 -12 -25 -34 -27 -51 -27 -35 1 21 12 25 25 43 30 40 4 -3 5 2 2 10 -3 9
-2 16 4 16 12 0 55 116 49 133 -2 7 -7 -3 -11 -21z"/>
<path d="M1041 2394 c0 -11 3 -14 6 -6 3 7 2 16 -1 19 -3 4 -6 -2 -5 -13z"/>
<path d="M2656 2368 c5 -8 2 -9 -11 -4 -20 7 -125 -32 -125 -46 0 -5 9 -4 20
2 11 6 26 8 32 4 7 -5 8 -3 3 6 -6 9 -1 10 16 5 20 -5 21 -4 9 5 -12 10 -11
11 8 7 13 -3 20 -1 16 5 -4 6 1 8 12 4 25 -8 53 9 29 17 -11 5 -14 3 -9 -5z"/>
<path d="M2375 2344 c-9 -15 -13 -24 -8 -21 6 4 27 2 48 -4 l38 -11 -44 -40
-44 -40 41 31 c23 17 44 28 48 24 3 -3 6 -1 6 6 0 8 7 11 15 7 8 -3 15 -1 15
4 0 6 -7 10 -15 10 -14 0 -72 25 -85 37 -2 2 2 8 10 13 8 6 10 10 4 10 -7 0
-19 -12 -29 -26z"/>
<path d="M3571 2351 l24 -20 -45 11 c-46 10 -139 5 -178 -9 -14 -5 31 -8 108
-7 82 0 130 -3 130 -9 0 -6 3 -7 7 -3 7 7 -45 55 -61 56 -4 0 2 -9 15 -19z"/>
<path d="M3301 2313 c-13 -3 -45 -18 -71 -34 -26 -16 -52 -29 -57 -29 -6 0
-17 -7 -24 -17 -8 -9 -26 -23 -40 -32 -51 -31 -149 -123 -206 -194 -32 -40
-61 -73 -65 -75 -5 -2 -8 -9 -8 -16 0 -7 -9 -21 -19 -33 -18 -19 -111 -176
-111 -187 0 -3 -11 -29 -25 -58 -14 -29 -41 -107 -61 -173 -32 -105 -37 -137
-41 -253 -6 -144 1 -188 45 -287 26 -59 72 -121 72 -98 0 7 -11 24 -24 38 -13
14 -37 65 -52 113 -25 76 -29 102 -28 202 0 84 6 139 22 205 13 50 25 101 28
115 3 14 12 41 21 60 8 19 18 44 23 55 36 96 171 325 191 325 5 0 9 7 9 15 0
16 216 235 232 235 5 0 18 9 30 20 12 11 63 40 112 65 50 24 87 44 81 43 -5 0
-21 -3 -34 -5z"/>
<path d="M2327 2303 c-4 -3 -7 -11 -7 -17 0 -6 5 -5 12 2 6 6 9 14 7 17 -3 3
-9 2 -12 -2z"/>
<path d="M3395 2275 c-38 -12 -36 -13 45 -8 128 8 187 -7 247 -65 67 -64 80
-86 103 -173 24 -92 26 -242 4 -340 -9 -39 -13 -82 -9 -97 4 -15 3 -24 -1 -19
-4 4 -20 -26 -36 -65 -36 -90 -117 -256 -133 -271 -6 -7 -18 -24 -26 -38 -22
-42 -93 -132 -146 -185 -58 -60 -181 -159 -208 -168 -11 -3 -31 -15 -44 -25
-23 -18 -23 -18 -2 -24 25 -6 114 49 104 66 -4 6 -1 8 8 5 19 -7 63 28 54 42
-4 6 -1 11 6 9 29 -3 38 1 32 18 -5 11 -3 14 6 8 18 -10 131 112 123 133 -3 9
-1 13 5 9 14 -9 55 38 57 65 1 13 7 22 14 20 17 -3 52 57 45 77 -4 9 -2 13 2
9 11 -10 57 59 61 90 1 14 7 28 12 31 17 11 54 93 48 107 -3 8 -1 14 4 14 5 0
7 7 4 15 -4 8 -1 15 5 15 6 0 11 5 11 11 0 5 -6 7 -12 4 -7 -4 -6 0 4 7 25 21
51 122 43 170 -4 22 -3 38 1 35 5 -3 9 49 9 115 0 65 -3 109 -6 96 -4 -19 -6
-17 -12 15 -12 74 -52 158 -98 208 -76 84 -216 120 -324 84z m422 -597 c-3 -8
-6 -5 -6 6 -1 11 2 17 5 13 3 -3 4 -12 1 -19z m-10 -40 c-3 -8 -6 -5 -6 6 -1
11 2 17 5 13 3 -3 4 -12 1 -19z m-107 -297 c0 -5 -9 -19 -20 -32 l-20 -24 17
32 c19 34 23 39 23 24z m-130 -214 c0 -2 -10 -12 -22 -23 l-23 -19 19 23 c18
21 26 27 26 19z m-99 -113 c-11 -14 -32 -35 -48 -46 -15 -12 -8 -1 17 25 50
52 62 60 31 21z m-121 -107 c0 -2 -10 -12 -22 -23 l-23 -19 19 23 c18 21 26
27 26 19z m-75 -60 c-40 -27 -80 -51 -73 -43 13 15 73 55 83 56 5 0 1 -6 -10
-13z"/>
<path d="M2302 2257 c-13 -15 -34 -67 -27 -67 3 0 14 18 25 40 21 40 21 51 2
27z"/>
<path d="M3308 2250 c-15 -4 -48 -22 -73 -39 -25 -17 -50 -31 -55 -31 -5 0
-20 -10 -34 -22 -14 -13 -47 -41 -73 -63 -50 -41 -183 -187 -183 -201 -1 -5
-14 -25 -30 -44 -17 -19 -30 -38 -30 -43 0 -5 -16 -33 -36 -63 -20 -29 -34
-59 -32 -66 3 -7 22 19 43 57 22 39 47 79 57 89 10 11 18 24 18 28 0 11 93
128 118 149 11 9 21 21 23 25 4 9 83 81 127 116 12 10 61 39 109 64 111 59
116 64 51 44z"/>
<path d="M1681 2224 c0 -11 3 -14 6 -6 3 7 2 16 -1 19 -3 4 -6 -2 -5 -13z"/>
<path d="M2341 2192 c-30 -42 -26 -50 5 -12 15 17 24 33 21 36 -2 3 -14 -8
-26 -24z"/>
<path d="M1646 2111 c-15 -50 -26 -94 -24 -97 9 -8 59 146 56 169 -2 11 -16
-20 -32 -72z"/>
<path d="M3780 2149 c0 -18 49 -140 50 -123 0 26 -19 82 -37 109 -7 11 -13 17
-13 14z"/>
<path d="M2435 2100 c-21 -22 -39 -30 -64 -31 -29 -1 -31 -2 -13 -7 21 -7 22
-8 6 -30 -16 -23 -42 -23 -71 0 -17 14 -4 38 21 39 11 0 15 3 9 6 -7 2 -13 14
-14 26 0 15 -8 7 -24 -28 -24 -49 -35 -96 -16 -67 7 12 13 12 36 0 l27 -15
-37 -38 c-25 -27 -39 -35 -44 -27 -4 7 -14 -9 -24 -42 -17 -53 -106 -221 -107
-201 0 6 -12 -12 -25 -40 -29 -59 -33 -86 -5 -35 22 41 27 33 5 -9 -8 -16 -21
-31 -28 -34 -8 -3 -25 -20 -37 -39 l-23 -33 32 30 33 30 -18 -45 c-20 -50 -43
-72 -116 -112 -27 -15 -48 -30 -47 -35 2 -4 -38 -38 -87 -75 -49 -36 -97 -73
-106 -81 -9 -9 -29 -24 -45 -34 -15 -10 -32 -23 -38 -29 -5 -6 -48 -40 -95
-74 -47 -35 -89 -70 -93 -77 -4 -7 -13 -13 -19 -13 -6 0 -30 -17 -53 -37 -114
-104 -246 -196 -233 -165 4 11 84 82 91 82 3 0 17 10 30 23 30 28 184 148 209
163 11 6 32 23 47 38 15 14 32 26 39 26 7 0 12 4 12 8 0 5 32 32 71 61 l71 53
-38 24 c-22 13 -49 28 -61 33 -12 6 -40 22 -61 36 -21 14 -57 35 -80 48 -126
68 -147 80 -157 91 -7 6 -31 20 -54 30 -22 11 -41 23 -41 28 0 10 38 -9 117
-59 28 -18 54 -33 58 -33 3 0 26 -14 51 -31 25 -17 50 -29 57 -26 6 2 -11 16
-38 32 -28 15 -61 35 -75 45 -14 10 -46 28 -70 40 -25 13 -55 30 -67 40 l-22
17 42 21 c23 12 49 27 59 34 13 10 23 7 51 -15 20 -15 38 -27 42 -27 3 0 23
-12 45 -26 41 -27 51 -44 26 -44 -8 0 -24 -8 -37 -19 -20 -16 -21 -21 -10 -35
7 -9 18 -13 24 -9 6 3 7 1 3 -5 -6 -11 6 -17 27 -13 4 1 10 -6 13 -14 3 -8 11
-12 17 -8 6 4 7 1 2 -7 -6 -10 -4 -12 8 -7 10 4 24 -2 36 -14 12 -13 24 -18
32 -14 8 6 10 4 4 -5 -5 -8 -4 -11 3 -6 6 3 16 -2 21 -11 10 -17 12 -17 26 1
8 11 15 16 15 11 0 -5 7 0 15 11 8 10 15 15 15 11 0 -4 9 -3 20 3 24 13 93 -7
87 -24 -2 -6 -24 -25 -48 -43 l-45 -32 -43 21 c-58 29 -63 16 -5 -16 49 -28
48 -28 95 14 9 8 36 29 59 45 l42 30 -44 6 c-42 6 -135 51 -212 103 -22 15
-47 24 -55 21 -9 -3 -12 -3 -8 1 7 8 -53 52 -93 69 -8 3 -42 24 -75 45 -33 22
-69 45 -80 50 -11 6 -42 24 -70 39 -27 16 -78 43 -111 59 -34 16 -64 35 -68
41 -4 6 -13 11 -21 11 -13 0 -72 35 -102 60 -7 5 -15 10 -20 10 -17 0 -142 92
-146 108 -4 13 -5 11 -6 -5 -1 -15 8 -27 29 -38 16 -9 30 -19 30 -24 0 -5 15
-16 34 -25 l34 -16 -15 -63 c-9 -34 -17 -73 -18 -86 -1 -17 -23 -40 -77 -80
-41 -31 -82 -63 -91 -71 -9 -8 -35 -28 -57 -45 -22 -16 -60 -46 -84 -65 -24
-19 -72 -57 -107 -85 -35 -27 -68 -56 -72 -63 -5 -7 -20 -17 -33 -22 -22 -9
-34 -30 -16 -30 4 0 37 26 74 58 37 31 81 68 99 82 18 14 46 36 63 50 17 15
65 51 106 82 42 31 82 63 89 72 7 9 19 16 27 16 7 0 19 8 26 18 7 10 27 28 44
41 23 17 30 28 26 46 -2 13 3 48 12 79 15 50 19 55 35 46 18 -9 18 -13 6 -54
-8 -24 -11 -47 -8 -50 4 -3 -1 -6 -10 -6 -17 0 -33 -18 -24 -27 3 -3 32 15 64
39 61 47 105 56 58 12 -14 -13 -30 -24 -34 -24 -4 0 -22 -12 -38 -27 -17 -16
-61 -50 -99 -78 -37 -27 -75 -58 -83 -67 -9 -10 -20 -18 -26 -18 -6 0 -24 -13
-40 -30 -16 -16 -34 -30 -41 -30 -7 0 -14 -4 -16 -9 -1 -5 -43 -40 -93 -79
-49 -38 -99 -79 -109 -91 -11 -11 -25 -21 -32 -21 -7 0 -21 -13 -31 -30 -9
-16 -23 -30 -30 -30 -7 0 -26 -18 -42 -40 -15 -21 -32 -36 -36 -32 -5 4 -5 2
-2 -5 4 -6 3 -22 -2 -36 -20 -51 3 -34 30 23 26 55 55 83 89 86 26 2 60 16 60
25 0 4 27 27 60 50 33 23 60 45 60 49 0 4 12 12 27 19 15 7 36 22 48 33 11 11
65 54 120 94 55 41 111 84 125 95 14 11 67 52 118 91 79 59 97 69 120 63 l27
-7 -32 -26 c-96 -82 -122 -102 -128 -102 -4 0 -22 -12 -41 -27 -18 -16 -47
-39 -64 -52 -21 -16 -28 -26 -20 -31 8 -5 7 -9 -5 -13 -10 -5 -14 -3 -9 4 4 7
1 10 -6 7 -8 -2 -14 -14 -15 -26 -2 -25 -1 -26 28 -11 15 7 12 2 -8 -15 -16
-14 -24 -25 -18 -26 7 0 30 15 50 33 40 35 184 145 212 162 9 6 33 25 54 43
34 30 67 42 67 25 0 -5 -26 -26 -56 -48 -31 -22 -67 -49 -80 -60 -13 -11 -42
-33 -64 -50 -22 -16 -60 -46 -84 -65 -24 -19 -65 -51 -90 -70 -26 -19 -60 -46
-75 -60 -63 -56 -240 -190 -250 -190 -18 0 -12 18 12 34 23 16 45 33 112 89
22 19 72 57 110 87 39 29 71 56 73 61 7 19 -16 8 -44 -21 -16 -16 -33 -30 -37
-30 -4 0 -36 -24 -72 -54 -90 -77 -111 -89 -130 -79 -15 9 -15 11 1 24 11 9
15 9 10 2 -4 -7 -2 -13 3 -13 6 0 11 8 11 19 0 12 7 18 18 17 9 0 16 5 14 12
-2 11 10 16 29 14 4 -1 9 8 12 18 3 11 2 20 -1 20 -4 0 -37 -25 -75 -55 -37
-30 -71 -55 -75 -55 -5 0 -19 -11 -32 -25 l-23 -24 -29 21 -30 21 -23 -25
c-28 -30 -65 -101 -65 -123 0 -9 -4 -14 -9 -11 -5 3 -12 -1 -15 -10 -10 -26
-26 -5 -26 36 0 60 34 128 72 145 23 10 27 14 13 14 -29 0 -50 -19 -79 -74
-31 -58 -33 -98 -6 -132 11 -14 20 -20 20 -12 0 7 7 3 16 -10 28 -39 85 -92
94 -86 5 3 11 1 15 -5 3 -5 17 -10 31 -10 13 0 33 -5 43 -12 15 -9 29 -9 63 2
23 7 50 19 58 26 14 11 44 28 185 105 59 32 156 87 204 114 18 11 58 35 88 53
31 17 61 32 68 32 8 0 15 4 17 9 3 8 63 43 193 112 33 17 62 35 63 40 2 5 16
0 32 -11 15 -11 32 -20 37 -20 5 0 32 -16 59 -35 27 -19 53 -35 58 -35 4 0 28
-13 53 -30 24 -16 49 -30 55 -30 7 0 -3 -16 -22 -35 -19 -19 -40 -35 -46 -35
-7 0 -17 -6 -21 -13 -4 -7 -47 -43 -95 -79 -48 -36 -93 -71 -100 -77 -38 -31
-109 -88 -130 -104 -102 -81 -128 -103 -128 -109 0 -5 -5 -8 -11 -8 -31 0 -99
-113 -99 -164 0 -23 24 -53 75 -95 22 -17 29 -8 15 19 -16 30 6 110 42 154 25
31 30 33 52 23 24 -12 24 -13 7 -32 -39 -44 -64 -101 -65 -148 -1 -34 -5 -46
-14 -42 -7 3 -10 0 -7 -5 3 -6 13 -10 21 -10 8 0 14 -5 14 -12 0 -8 6 -7 16 4
12 12 13 20 6 35 -12 22 1 105 22 135 24 34 81 68 97 57 9 -5 10 -9 2 -9 -15
0 -62 -43 -85 -78 -11 -17 -18 -46 -18 -79 0 -28 -4 -55 -10 -58 -5 -3 -10
-11 -10 -16 0 -6 4 -8 8 -5 4 2 27 -4 51 -15 55 -24 69 -24 111 4 19 13 49 30
65 39 46 23 115 61 170 93 71 42 94 55 173 97 39 21 73 42 76 47 3 5 21 12 40
15 33 6 34 8 40 69 4 34 14 93 22 130 8 38 14 80 13 95 0 25 -1 26 -9 5 -10
-24 -38 -181 -42 -233 -3 -32 -9 -38 -73 -74 -133 -74 -150 -83 -210 -116 -33
-18 -71 -40 -85 -50 -14 -9 -38 -24 -55 -32 -16 -8 -60 -31 -97 -51 -97 -53
-115 -50 -129 23 l-7 35 -1 -32 c-1 -38 -16 -44 -24 -11 -10 36 13 105 48 145
26 29 36 35 45 26 10 -9 5 -18 -18 -40 -16 -15 -33 -41 -36 -58 l-6 -30 16 30
c21 39 71 86 193 180 54 42 103 82 169 136 7 6 52 41 100 77 48 36 91 72 95
79 4 7 14 13 21 13 7 0 23 11 36 25 32 34 78 57 83 41 3 -6 8 3 12 19 53 214
120 396 216 587 27 53 49 105 50 115 0 10 3 13 5 6 3 -7 26 18 51 55 25 37 70
92 102 123 84 85 105 109 95 109 -6 0 -23 -13 -39 -30z m-192 -230 c-3 -12 -8
-19 -11 -16 -5 6 5 36 12 36 2 0 2 -9 -1 -20z m-1280 -69 c-5 -4 -20 -17 -35
-30 l-26 -23 10 40 c10 38 11 40 34 30 14 -6 21 -14 17 -17z m81 -52 c-3 -5
-11 -9 -18 -9 -8 0 -20 -7 -27 -16 -8 -9 -28 -26 -45 -38 -63 -42 -149 -110
-157 -123 -4 -7 -13 -13 -19 -13 -7 0 -24 -12 -39 -26 -15 -15 -36 -32 -47
-38 -10 -6 -63 -45 -116 -86 -53 -41 -111 -85 -129 -98 -18 -13 -42 -32 -54
-44 -11 -11 -29 -18 -38 -16 -12 2 -2 14 34 42 28 21 61 49 73 62 13 13 28 24
34 24 5 0 23 14 39 30 16 17 34 30 41 30 7 0 17 6 21 13 4 8 49 44 98 82 50
38 94 75 98 82 4 7 13 13 19 13 6 0 27 14 47 31 88 76 166 127 178 117 7 -6
10 -14 7 -19z m106 -44 c0 -1 -30 -24 -66 -51 -36 -27 -80 -61 -97 -76 -17
-16 -35 -28 -40 -28 -5 0 -24 -12 -43 -26 -19 -15 -34 -21 -34 -15 0 7 -5 9
-12 5 -9 -5 -9 -2 1 9 15 19 26 23 15 6 -4 -7 -1 -10 7 -7 8 3 14 10 14 16 0
7 4 12 8 12 4 -1 16 7 25 18 9 10 13 11 7 3 -8 -12 -7 -12 12 -2 13 6 22 15
20 19 -1 4 1 7 5 7 4 0 15 10 23 22 9 13 22 20 30 17 10 -4 15 0 15 14 0 12 5
24 12 28 7 5 8 3 3 -6 -5 -8 -3 -11 4 -9 7 3 12 8 11 12 -2 15 44 44 62 39 10
-2 18 -5 18 -7z m112 -57 l49 -32 -28 -16 c-102 -57 -125 -82 -85 -97 9 -4 35
-19 58 -35 22 -15 54 -32 69 -38 l29 -11 -29 -24 c-17 -14 -41 -28 -55 -31
-14 -4 -32 -12 -40 -19 -8 -7 -40 -27 -70 -44 -30 -16 -84 -47 -120 -67 -36
-20 -87 -49 -115 -64 -27 -15 -79 -44 -115 -65 -113 -66 -150 -85 -150 -75 0
5 8 11 19 15 23 7 171 155 171 171 0 6 7 17 15 24 17 14 19 38 5 60 -7 11 -12
12 -21 3 -6 -6 -17 -10 -23 -9 -6 2 -8 1 -5 -1 3 -2 4 -17 3 -33 -1 -17 2 -30
7 -30 39 0 -146 -177 -256 -245 -126 -78 -123 -77 -144 -65 -16 8 -21 21 -21
50 0 67 12 86 115 180 21 19 35 28 30 20 -4 -8 7 -1 26 15 18 17 27 22 19 11
-10 -13 -3 -11 25 8 51 35 52 36 24 29 -20 -6 -19 -2 11 23 19 17 64 52 100
79 70 52 123 95 155 124 11 9 56 44 100 76 44 33 86 65 93 72 7 7 17 13 20 13
4 0 22 14 40 30 18 17 36 30 39 30 3 0 27 -14 55 -32z m861 7 c-3 -9 -8 -14
-10 -11 -3 3 -2 9 2 15 9 16 15 13 8 -4z m-571 -195 c25 0 88 -40 88 -56 0 -8
6 -14 13 -14 7 0 20 -6 28 -12 8 -7 12 -12 10 -11 -2 1 -19 -4 -37 -12 -22 -9
-36 -10 -40 -4 -3 6 -15 9 -25 6 -11 -3 -17 -2 -15 2 7 11 -77 62 -92 56 -7
-2 -11 -1 -8 4 3 4 -6 13 -21 20 l-26 12 34 18 c29 16 37 17 54 5 11 -8 27
-14 37 -14z m457 -59 c-6 -17 -22 -34 -40 -41 -16 -7 -29 -16 -29 -20 0 -4
-39 -36 -87 -70 -49 -35 -92 -68 -98 -74 -5 -6 -20 -18 -31 -26 -76 -53 -220
-165 -227 -177 -4 -7 -14 -13 -21 -13 -7 0 -23 -10 -36 -22 -49 -46 -245 -187
-260 -187 -10 0 -7 6 10 20 54 43 81 65 99 80 10 9 57 45 104 82 47 36 92 70
99 76 7 6 33 27 58 46 25 19 50 39 56 44 55 44 140 108 155 117 11 6 33 23 48
38 15 14 31 26 35 26 7 0 48 32 129 102 41 35 48 35 36 -1z m-16 -73 c-3 -18
-11 -36 -17 -40 -6 -3 -23 -17 -38 -30 -14 -13 -45 -36 -67 -52 -22 -16 -38
-32 -36 -36 3 -4 -3 -14 -13 -21 -15 -13 -16 -12 -3 4 22 28 4 20 -52 -24 -29
-22 -63 -49 -77 -60 -74 -57 -90 -72 -85 -79 3 -5 0 -12 -6 -16 -8 -4 -9 -3
-5 4 4 7 3 12 -2 12 -11 0 -155 -110 -165 -127 -4 -7 -13 -13 -19 -13 -6 0
-25 -12 -44 -27 -135 -112 -141 -115 -172 -99 -25 13 -32 13 -49 1 -26 -18
-64 -88 -73 -135 l-8 -35 -1 34 c-2 66 72 171 111 156 8 -3 27 8 44 24 16 17
34 31 40 31 5 0 21 10 34 23 13 12 34 29 46 37 12 8 66 49 120 90 53 41 106
82 118 90 12 8 37 27 56 42 42 34 41 33 110 84 30 23 61 48 69 57 7 10 18 17
23 17 6 0 24 11 42 26 70 57 118 94 122 94 2 0 1 -15 -3 -32z m-1130 -62 c3
-8 -2 -20 -11 -27 -14 -11 -15 -11 -5 0 6 7 9 20 6 27 -3 8 -3 14 0 14 3 0 7
-6 10 -14z m1103 -21 c-3 -20 -56 -75 -73 -75 -7 0 -13 -4 -13 -8 0 -19 -189
-146 -200 -135 -6 5 -2 13 6 13 3 -1 13 7 22 18 9 10 13 12 8 5 -6 -10 -4 -12
8 -7 9 3 16 14 16 24 0 11 5 22 12 26 7 5 8 2 3 -7 -5 -8 4 -3 19 11 15 14 30
24 32 22 7 -4 54 30 50 37 -2 3 10 17 27 31 17 14 27 19 23 11 -6 -9 -5 -12 5
-9 8 3 14 10 14 16 0 7 4 11 8 10 5 -2 13 5 18 15 12 21 18 22 15 2z m-1468
-49 c-19 -20 -54 -1 -38 19 9 11 17 12 31 4 15 -8 17 -12 7 -23z m-132 -36
c-30 -35 -68 -131 -64 -160 6 -38 -11 -35 -31 5 -32 65 40 213 89 182 16 -9
17 -14 6 -27z m1578 7 c-3 -9 -47 -47 -97 -84 -51 -37 -99 -73 -107 -80 -50
-42 -103 -84 -160 -128 -36 -27 -73 -57 -83 -67 -10 -10 -21 -18 -25 -18 -4 0
-24 -15 -44 -32 -97 -87 -118 -102 -129 -91 -7 7 4 22 33 44 24 18 59 47 79
64 20 16 51 41 69 55 18 14 50 39 71 57 21 17 44 33 51 36 7 2 10 7 7 11 -3 3
-43 -22 -88 -56 -45 -35 -96 -73 -113 -85 -17 -13 -36 -30 -43 -39 -9 -13 -16
-14 -33 -5 -12 6 -23 7 -26 2 -3 -5 2 -12 11 -15 15 -6 15 -8 3 -16 -8 -5 -19
-5 -26 0 -6 6 -14 7 -17 3 -4 -3 -7 -4 -7 -2 0 3 14 18 32 35 17 16 28 23 23
15 -5 -9 -3 -12 6 -9 8 3 14 10 14 15 0 6 4 15 9 20 5 5 6 2 2 -7 -5 -8 2 -4
15 10 13 14 20 19 14 11 -9 -12 -7 -12 12 -1 12 8 19 18 17 22 -3 5 3 11 13
15 10 4 25 14 33 23 8 9 11 10 6 3 -6 -10 -4 -12 8 -7 9 3 16 15 16 26 0 10 4
17 10 13 5 -3 24 9 42 28 18 18 24 23 14 10 -24 -29 -14 -29 32 -1 20 12 32
16 27 9 -5 -8 -4 -12 3 -10 12 5 139 102 185 142 17 15 37 27 44 27 6 0 16 7
20 15 9 15 76 65 81 60 1 -1 0 -9 -4 -18z m-1490 0 c-24 -14 -76 -72 -93 -104
-6 -12 -11 -40 -11 -62 0 -40 -12 -53 -26 -29 -4 6 -3 9 2 6 5 -4 10 21 11 54
1 57 4 64 44 104 29 30 52 44 69 44 24 -1 24 -1 4 -13z m21 -37 c3 -5 -5 -16
-19 -25 -30 -20 -56 -82 -56 -138 -1 -39 -2 -41 -15 -23 -28 38 -9 115 42 169
29 29 38 33 48 17z m1182 -113 c0 -8 -6 -14 -14 -14 -9 0 -10 4 -2 14 6 7 12
13 14 13 1 0 2 -6 2 -13z m-542 -256 c3 -6 -8 -24 -24 -40 -34 -35 -56 -100
-47 -140 6 -25 6 -25 -9 -7 -30 39 -9 126 40 169 35 31 32 30 40 18z"/>
<path d="M1099 1693 c-13 -16 -12 -17 4 -4 9 7 17 15 17 17 0 8 -8 3 -21 -13z"/>
<path d="M1003 1383 c-7 -2 -13 -18 -13 -34 0 -19 4 -28 11 -24 6 4 8 13 5 20
-5 15 17 38 27 28 4 -3 7 -1 7 5 0 12 -15 14 -37 5z"/>
<path d="M1016 1361 c-3 -5 1 -11 9 -15 8 -3 15 -1 15 4 0 13 -18 22 -24 11z"/>
<path d="M734 1275 c-18 -14 -17 -15 11 -9 46 10 65 23 34 24 -14 0 -34 -7
-45 -15z"/>
<path d="M493 1100 c-29 -12 -73 -78 -73 -110 0 -30 17 -50 42 -50 22 0 23 13
3 30 -19 16 -19 30 1 30 11 0 14 6 8 23 -3 12 -3 19 1 15 5 -4 14 -3 22 3 24
20 15 -10 -11 -35 -22 -23 -23 -24 -4 -40 21 -18 32 -21 23 -6 -3 6 1 10 9 10
10 0 16 9 16 25 0 19 4 23 18 19 15 -5 15 -4 2 8 -17 14 -15 48 3 48 6 0 1 9
-11 20 -12 11 -22 20 -24 19 -2 0 -13 -4 -25 -9z"/>
<path d="M919 2093 l-24 -28 28 24 c25 23 32 31 24 31 -2 0 -14 -12 -28 -27z"/>
<path d="M2232 2084 c-20 -64 -23 -67 -70 -44 -22 11 -49 20 -59 19 -10 0 7
-12 37 -27 52 -26 55 -29 53 -62 -1 -19 1 -27 4 -17 3 14 11 17 28 13 13 -3
27 -2 30 4 3 5 -2 10 -13 10 -30 0 -31 8 -11 68 11 31 18 60 16 65 -2 6 -8 -8
-15 -29z"/>
<path d="M3295 2087 c-38 -18 -95 -51 -125 -73 -70 -52 -220 -211 -220 -233 0
-5 -10 -22 -23 -38 -52 -65 -129 -257 -156 -391 -23 -111 -7 -235 40 -318 28
-49 95 -114 117 -113 14 0 14 2 -3 12 -50 30 -101 95 -120 152 -28 84 -27 240
3 356 29 114 121 304 179 370 7 8 32 37 55 65 49 58 121 124 135 124 6 0 17 8
26 18 16 17 46 34 122 67 56 25 161 31 207 11 89 -38 152 -132 167 -251 l8
-60 2 57 c1 57 -20 130 -45 156 -7 6 -15 21 -19 32 -3 10 -32 35 -63 55 -52
33 -62 35 -137 35 -69 0 -90 -5 -150 -33z"/>
<path d="M3360 2063 c-67 -11 -194 -87 -261 -155 -52 -54 -137 -160 -160 -202
-50 -89 -53 -96 -42 -107 8 -8 11 -6 10 7 -1 11 4 18 11 16 11 -2 17 11 13 32
-1 5 8 19 20 32 12 13 19 24 14 24 -4 0 4 10 19 21 15 12 24 24 21 27 -3 3 12
24 32 45 21 22 32 36 24 32 -10 -6 -12 -4 -6 5 6 10 12 7 25 -10 14 -18 23
-21 45 -16 31 8 107 82 165 162 27 36 49 54 70 59 16 4 28 11 24 16 -3 5 -1 9
4 9 8 0 42 -101 42 -123 0 -4 -10 -1 -22 6 -38 24 -80 4 -148 -71 -34 -37 -73
-89 -87 -117 -25 -48 -25 -50 -8 -81 33 -61 136 -74 195 -24 19 16 32 32 28
35 -3 3 -20 -7 -39 -22 -18 -15 -29 -22 -24 -14 6 11 4 13 -9 8 -10 -4 -23 -7
-29 -8 -7 0 -3 -5 8 -10 14 -7 8 -8 -25 -4 -52 6 -94 33 -98 62 -4 28 32 94
61 113 14 8 59 39 102 68 l78 52 -7 -92 c-5 -68 -3 -89 5 -78 9 13 10 13 6 0
-2 -8 -9 -15 -15 -15 -7 0 -21 -15 -32 -32 -11 -18 -24 -33 -30 -33 -5 0 -10
-5 -10 -10 0 -15 47 21 59 45 l10 20 1 -20 c1 -11 1 -31 0 -45 -2 -33 -121
-270 -132 -264 -4 3 -8 0 -8 -7 0 -7 -3 -9 -7 -5 -5 4 0 13 9 20 28 20 32 66
9 102 -15 25 -28 33 -66 38 -26 4 -49 6 -51 3 -3 -2 14 -7 36 -11 23 -4 38
-11 35 -16 -3 -6 -34 -24 -68 -41 -34 -17 -70 -38 -80 -46 -25 -23 -29 -12
-14 33 9 24 27 48 48 63 29 19 30 22 9 16 -55 -16 -88 -86 -96 -202 -6 -85 -6
-91 17 -111 12 -12 29 -22 36 -22 7 0 10 -6 7 -14 -7 -17 -162 -96 -189 -96
-17 0 -16 3 8 28 40 41 64 109 72 197 6 72 5 83 -15 107 -23 30 -40 29 -77 -5
-21 -18 -43 -16 -43 4 0 6 5 7 12 3 8 -5 9 0 6 14 -4 14 -2 20 5 15 6 -4 8 0
4 10 -3 10 -2 17 3 17 6 0 10 10 10 23 0 13 5 28 12 35 8 8 9 15 1 23 -16 16
-67 -112 -59 -151 3 -17 2 -29 -3 -26 -12 8 -21 -55 -21 -147 0 -51 4 -76 10
-72 6 4 9 30 8 58 -3 43 0 52 15 55 11 2 35 15 54 28 20 13 37 23 38 22 6 -8
14 -100 9 -95 -4 4 -16 -10 -26 -31 -24 -45 -58 -83 -69 -77 -4 3 -10 -1 -13
-7 -3 -7 -2 0 1 16 4 20 3 27 -6 22 -22 -14 -2 -91 34 -130 14 -15 25 -30 25
-35 0 -13 90 -51 135 -58 56 -7 174 27 232 68 23 16 46 29 52 29 6 0 11 4 11
10 0 5 16 20 35 32 19 13 37 29 40 36 4 12 -51 -23 -70 -44 -5 -7 -40 -31 -77
-53 -113 -71 -261 -81 -325 -23 -16 15 -22 21 -13 15 19 -15 30 -17 30 -5 0 4
-15 15 -33 25 -51 27 -44 54 15 62 85 12 282 163 329 253 8 14 26 39 42 56 15
17 27 34 27 39 0 5 15 34 33 65 80 139 120 371 82 477 -8 22 -15 42 -15 44 0
2 18 1 39 -2 58 -7 109 -52 143 -122 24 -52 28 -72 28 -150 0 -60 -7 -115 -20
-163 -27 -97 -24 -113 5 -27 19 56 24 91 25 176 0 143 -26 210 -107 272 -20
15 -32 27 -26 27 22 0 102 -83 124 -128 21 -42 23 -61 23 -181 0 -149 16 -141
19 9 2 135 -43 240 -127 295 -17 12 -35 15 -58 10 -25 -5 -29 -4 -18 4 11 8 2
10 -35 9 -27 0 -61 -3 -75 -5z m-83 -83 c-6 -11 -14 -15 -17 -11 -3 5 -40 -24
-82 -64 -47 -44 -73 -75 -65 -78 9 -4 9 -6 0 -6 -20 -2 -42 58 -22 60 5 1 14
2 21 3 6 0 12 9 14 20 1 10 8 24 15 30 9 8 10 7 4 -4 -4 -8 10 1 31 21 21 20
45 34 53 31 9 -3 11 0 6 8 -5 8 -4 11 3 6 6 -3 13 -2 17 3 3 6 12 8 20 5 11
-5 12 -10 2 -24z m-48 -57 c-40 -47 -42 -49 -34 -33 10 19 47 60 53 60 3 0 -5
-12 -19 -27z m-49 -46 c0 -2 -12 -14 -27 -28 l-28 -24 24 28 c23 25 31 32 31
24z m-130 -50 c0 -2 -10 -12 -22 -23 l-23 -19 19 23 c18 21 26 27 26 19z m-50
-71 c0 -2 -8 -10 -17 -17 -16 -13 -17 -12 -4 4 13 16 21 21 21 13z m253 -243
c-4 -9 -2 -14 3 -10 6 3 11 -10 12 -31 2 -28 0 -33 -8 -22 -8 13 -10 12 -10
-5 0 -11 -10 -36 -22 -55 -12 -19 -23 -46 -23 -59 0 -14 -10 -29 -25 -38 -25
-15 -25 -15 -2 2 12 10 22 25 22 33 0 11 -17 -1 -48 -31 -26 -26 -54 -47 -62
-48 -10 0 -8 -4 5 -9 19 -8 19 -9 1 -9 -41 -2 -56 27 -56 105 l0 74 48 25 c26
14 74 41 107 60 33 19 61 34 62 35 1 0 -1 -7 -4 -17z m-306 -75 c6 -7 10 -40
10 -73 0 -33 -2 -50 -4 -37 -7 35 -29 37 -73 7 -22 -16 -42 -26 -44 -24 -11
12 -16 49 -7 49 6 0 11 6 11 13 0 15 47 62 70 70 23 8 27 8 37 -5z m303 -62
c0 -2 -8 -10 -17 -17 -16 -13 -17 -12 -4 4 13 16 21 21 21 13z m-100 -110 c0
-2 -8 -10 -17 -17 -16 -13 -17 -12 -4 4 13 16 21 21 21 13z m-211 -58 c-16
-30 -59 -74 -59 -60 0 6 8 17 18 24 11 7 24 23 31 36 6 12 14 22 17 22 2 0 -1
-10 -7 -22z"/>
<path d="M3194 1958 l-19 -23 23 19 c12 11 22 21 22 23 0 8 -8 2 -26 -19z"/>
<path d="M1586 1949 c-31 -61 -35 -88 -5 -39 20 32 42 90 35 90 -2 0 -15 -23
-30 -51z"/>
<path d="M1516 1838 c-14 -18 -39 -42 -56 -53 -30 -20 -39 -35 -19 -35 13 0
109 98 109 111 0 16 -8 10 -34 -23z"/>
<path d="M2166 1859 c-2 -8 -12 -35 -22 -62 -9 -26 -14 -50 -12 -53 3 -3 15
23 27 57 11 34 19 65 16 67 -2 3 -7 -1 -9 -9z"/>
<path d="M2247 1783 c-2 -5 -16 -29 -32 -55 -15 -27 -24 -48 -21 -48 7 0 50
67 59 93 6 17 2 24 -6 10z"/>
<path d="M3697 1705 c-8 -77 -52 -227 -86 -294 -22 -42 -24 -64 -4 -39 11 15
76 184 93 243 6 22 10 67 8 100 l-3 60 -8 -70z"/>
<path d="M3001 1718 c-7 -11 -9 -23 -5 -26 4 -4 9 -1 11 6 3 6 9 10 14 6 5 -3
9 2 9 10 0 24 -15 26 -29 4z"/>
<path d="M3071 1719 c-8 -13 -9 -25 -3 -31 13 -13 35 18 25 36 -7 13 -10 12
-22 -5z"/>
<path d="M3001 1656 c-8 -14 -11 -32 -8 -40 9 -23 34 -20 42 4 4 11 11 18 16
14 5 -3 7 -14 4 -24 -8 -25 8 -33 23 -10 9 14 8 19 -3 23 -7 3 -15 16 -17 29
-4 33 -41 36 -57 4z m31 7 c-6 -2 -10 -9 -7 -13 3 -5 1 -11 -5 -15 -5 -3 -10
0 -10 8 0 17 10 27 24 26 6 0 5 -3 -2 -6z"/>
<path d="M2727 1606 c-15 -30 -27 -63 -27 -73 1 -10 11 5 24 32 45 98 48 133
3 41z"/>
<path d="M2151 1600 c-12 -22 -21 -46 -19 -52 2 -6 14 10 27 36 28 60 22 70
-8 16z"/>
<path d="M2945 1623 c-3 -9 0 -21 6 -27 9 -8 10 -7 6 6 -4 12 -2 15 9 11 7 -3
14 -1 14 5 0 17 -28 21 -35 5z"/>
<path d="M2981 1566 c-13 -15 -7 -36 9 -36 12 0 22 32 12 42 -5 5 -14 2 -21
-6z"/>
<path d="M3611 1496 c-13 -31 -21 -59 -18 -62 8 -8 48 87 45 105 -2 8 -14 -11
-27 -43z"/>
<path d="M2666 1428 c-17 -54 -26 -102 -25 -142 l1 -61 9 60 c5 32 15 82 23
110 17 61 27 115 21 115 -2 0 -15 -37 -29 -82z"/>
<path d="M2101 1475 c-6 -16 -16 -38 -21 -47 -6 -10 -10 -26 -9 -35 0 -10 11
6 25 36 13 30 23 59 20 65 -2 6 -9 -2 -15 -19z"/>
<path d="M1961 1469 c-13 -10 -19 -19 -14 -19 13 0 49 27 43 33 -3 3 -16 -3
-29 -14z"/>
<path d="M744 1450 c-16 -16 -34 -30 -40 -30 -5 0 -23 -13 -39 -30 -16 -16
-34 -30 -41 -30 -7 0 -12 -9 -11 -20 2 -27 11 -25 39 8 13 15 31 28 39 30 7 1
29 19 47 40 19 20 31 31 27 25 -3 -8 0 -13 8 -13 9 0 15 10 15 25 0 32 -8 32
-44 -5z m-84 -84 c0 -2 -8 -10 -17 -17 -16 -13 -17 -12 -4 4 13 16 21 21 21
13z"/>
<path d="M3552 1438 c-30 -59 -28 -73 4 -20 14 23 24 47 22 52 -2 6 -13 -9
-26 -32z"/>
<path d="M3566 1383 c-4 -13 -11 -23 -16 -23 -4 0 -13 -13 -18 -29 -12 -34
-96 -147 -120 -160 -9 -5 -13 -13 -9 -18 8 -8 17 1 79 78 41 51 99 151 95 163
-2 6 -7 1 -11 -11z"/>
<path d="M1520 1348 c19 -12 41 -28 48 -35 12 -12 42 -18 42 -9 0 7 -76 53
-100 60 -20 6 -18 3 10 -16z"/>
<path d="M3477 1303 c-46 -69 -167 -203 -183 -203 -5 0 -19 -11 -31 -24 -12
-12 -55 -37 -95 -55 -47 -20 -61 -30 -41 -27 79 13 253 149 326 256 17 25 39
53 48 63 15 16 32 57 24 57 -1 0 -23 -30 -48 -67z"/>
<path d="M3559 1313 c-13 -21 -26 -42 -28 -48 -2 -5 -28 -39 -57 -75 -88 -109
-177 -184 -283 -238 -53 -26 -59 -32 -33 -27 18 2 53 18 77 35 24 16 48 30 53
30 19 0 197 184 244 252 42 61 66 108 55 108 -3 0 -16 -17 -28 -37z"/>
<path d="M2028 1259 c-37 -114 -34 -147 3 -39 16 47 28 94 27 104 -2 11 -15
-19 -30 -65z"/>
<path d="M2101 1185 c-28 -93 -36 -148 -26 -172 6 -15 9 -13 16 12 5 16 6 40
2 54 -4 18 -3 22 7 16 9 -5 10 -2 5 15 -5 14 -3 20 3 16 6 -3 10 7 10 27 1 48
6 71 17 79 6 5 6 11 -1 18 -8 8 -17 -11 -33 -65z m-14 -137 c-3 -8 -6 -5 -6 6
-1 11 2 17 5 13 3 -3 4 -12 1 -19z"/>
<path d="M2633 1175 c0 -27 2 -38 4 -22 2 15 2 37 0 50 -2 12 -4 0 -4 -28z"/>
<path d="M2644 1060 c3 -66 49 -169 98 -220 65 -68 186 -108 276 -90 26 5 58
12 72 15 23 6 24 5 5 -6 -10 -7 -33 -16 -50 -20 l-30 -7 28 -1 c39 -1 106 27
88 38 -10 7 -10 10 -1 16 7 4 16 2 20 -5 5 -9 13 -9 25 -3 37 21 -31 23 -101
3 -87 -25 -126 -25 -205 0 -68 22 -96 42 -145 105 -27 35 -65 134 -78 205 -3
14 -3 0 -2 -30z"/>
<path d="M1932 1080 c0 -14 2 -19 5 -12 2 6 2 18 0 25 -3 6 -5 1 -5 -13z"/>
<path d="M1962 984 c-12 -54 -22 -117 -21 -139 1 -45 2 -43 31 107 26 138 19
161 -10 32z"/>
<path d="M2945 1000 c3 -6 20 -10 37 -10 38 0 34 5 -10 13 -21 4 -31 3 -27 -3z"/>
<path d="M2060 990 c0 -8 5 -22 10 -30 9 -13 10 -13 10 0 0 8 -5 22 -10 30 -9
13 -10 13 -10 0z"/>
<path d="M3028 983 c7 -3 16 -2 19 1 4 3 -2 6 -13 5 -11 0 -14 -3 -6 -6z"/>
<path d="M1833 909 c-31 -11 -33 -60 -3 -52 11 3 20 10 20 15 0 5 6 6 13 2 9
-6 9 -4 -1 8 -10 13 -10 17 0 20 7 3 8 7 3 10 -6 3 -20 2 -32 -3z"/>
<path d="M2958 913 c7 -3 16 -2 19 1 4 3 -2 6 -13 5 -11 0 -14 -3 -6 -6z"/>
<path d="M3035 910 l-50 -7 45 0 c25 -1 56 3 70 7 31 10 8 10 -65 0z"/>
<path d="M2695 800 c-7 -11 38 -42 56 -38 8 2 13 -3 12 -9 -2 -7 -2 -13 0 -14
1 0 22 -2 47 -5 l45 -4 -43 20 c-24 11 -56 29 -72 40 -32 23 -36 24 -45 10z
m50 -28 c-3 -3 -11 0 -18 7 -9 10 -8 11 6 5 10 -3 15 -9 12 -12z"/>
<path d="M1977 793 c-9 -2 -15 -9 -12 -14 4 -5 1 -9 -5 -9 -7 0 -10 -7 -6 -15
3 -8 1 -15 -4 -15 -5 0 -11 10 -13 23 -2 12 -4 8 -3 -10 1 -17 -2 -29 -6 -27
-4 3 -15 -4 -25 -16 l-18 -21 -7 23 c-4 16 -6 9 -7 -23 -1 -25 4 -50 10 -56 8
-8 8 -13 0 -17 -18 -11 -13 -26 13 -36 14 -5 25 -19 28 -34 6 -30 7 -30 -38
-11 -31 13 -34 17 -28 42 4 22 3 25 -5 13 -13 -18 -14 -50 -2 -50 4 0 25 -12
46 -26 21 -14 46 -23 57 -21 24 7 24 -19 0 -32 -22 -12 -37 -3 -46 25 -6 21
-39 38 -50 26 -10 -10 -6 -62 4 -62 6 0 8 12 6 28 l-5 27 26 -30 c26 -29 26
-30 5 -35 -16 -4 -19 -9 -12 -20 5 -8 10 -11 10 -7 0 5 6 2 14 -5 35 -33 58
-48 66 -43 5 3 11 1 15 -5 9 -15 75 -12 81 4 3 7 15 12 28 11 19 -2 22 1 18
21 -2 13 -9 24 -15 24 -6 0 -2 6 9 14 10 8 16 18 12 22 -5 4 -17 -1 -28 -11
-24 -21 -55 -24 -85 -8 -17 9 -20 20 -18 60 2 47 1 50 -32 66 -25 12 -32 21
-28 35 4 17 9 18 39 9 29 -9 33 -14 29 -36 -4 -22 -4 -22 6 4 7 17 17 33 23
37 7 5 6 8 -3 8 -11 0 -11 3 -1 15 9 11 8 18 -9 36 -12 13 -21 29 -21 36 0 24
31 27 53 4 18 -18 20 -24 9 -41 -16 -27 -15 -35 3 -20 8 7 15 22 15 34 0 17 2
18 10 6 7 -11 10 -11 10 -2 0 7 4 11 9 8 5 -3 14 1 21 9 7 8 8 15 3 15 -5 0
-15 11 -21 24 -6 13 -25 31 -43 40 -36 18 -48 16 -24 -4 8 -7 15 -21 15 -31 0
-22 0 -22 -35 -9 -19 7 -24 7 -19 -2 4 -6 3 -8 -3 -5 -11 7 -11 36 1 55 4 6 6
11 4 11 -2 -1 -11 -3 -21 -6z m110 -65 c-3 -8 -6 -5 -6 6 -1 11 2 17 5 13 3
-3 4 -12 1 -19z m-141 -36 c11 -10 26 -16 33 -14 7 2 4 -5 -8 -17 -25 -25 -25
-25 -56 -5 -20 13 -23 20 -14 35 12 24 20 24 45 1z m54 -283 c0 -10 -9 -21
-21 -24 -27 -9 -33 -1 -18 22 15 25 39 26 39 2z m82 0 c4 -10 -38 -49 -52 -48
-8 0 -10 3 -4 5 6 3 9 16 6 30 -4 22 -2 25 22 21 15 -1 27 -5 28 -8z"/>
<path d="M2868 723 c7 -3 16 -2 19 1 4 3 -2 6 -13 5 -11 0 -14 -3 -6 -6z"/>
<path d="M2963 723 c9 -2 25 -2 35 0 9 3 1 5 -18 5 -19 0 -27 -2 -17 -5z"/>
<path d="M2190 673 c0 -12 5 -25 10 -28 8 -5 7 -11 0 -20 -7 -8 -10 -28 -8
-44 2 -21 -4 -36 -19 -50 -12 -11 -24 -29 -28 -41 -3 -11 -10 -20 -15 -20 -6
0 -5 -11 0 -26 7 -19 7 -31 -1 -40 -10 -12 -9 -13 5 -8 9 3 16 12 16 19 0 7
16 26 35 42 38 30 55 73 29 73 -8 0 -12 5 -9 11 4 6 9 8 12 5 3 -3 14 5 24 18
23 29 25 43 3 22 -24 -25 -47 -21 -39 7 4 12 12 27 18 32 7 7 8 6 3 -2 -8 -14
3 -17 28 -7 9 3 13 10 10 15 -3 5 -10 7 -15 4 -5 -4 -5 5 1 20 13 34 12 45 -1
23 -5 -10 -16 -18 -24 -18 -8 0 -19 8 -24 18 -9 15 -10 15 -11 -5z m18 -183
c-7 -11 -19 -22 -26 -25 -8 -3 -10 0 -6 7 5 7 2 9 -9 5 -14 -5 -14 -3 1 23 13
23 20 26 34 19 15 -8 16 -13 6 -29z"/>
<path d="M2089 662 c-22 -9 -66 -63 -79 -96 -15 -42 -12 -62 13 -75 12 -6 14
-9 5 -7 -24 7 -23 -1 3 -14 15 -9 24 -8 35 1 8 6 14 8 14 3 0 -5 7 0 15 10 10
14 15 15 15 6 0 -15 26 16 30 35 1 6 8 13 15 18 20 11 30 74 15 92 -7 8 -9 15
-4 15 5 0 2 5 -6 10 -17 11 -47 12 -71 2z m28 -14 c-2 -7 -1 -20 4 -29 7 -13
4 -15 -16 -11 -14 2 -25 8 -25 13 0 5 7 5 17 2 11 -4 14 -3 9 5 -4 7 -4 17 -1
22 9 14 18 12 12 -2z m-24 -68 c-6 -22 -21 -35 -29 -27 -7 7 15 47 25 47 5 0
7 -9 4 -20z m28 -23 c-10 -9 -11 -8 -5 6 3 10 9 15 12 12 3 -3 0 -11 -7 -18z
m-31 -43 c0 -7 -25 1 -37 13 -22 20 -14 24 12 7 14 -9 25 -18 25 -20z"/>
<path d="M1297 610 c-37 -32 -63 -90 -53 -116 3 -9 13 -14 21 -11 9 4 12 1 9
-8 -4 -10 0 -12 16 -8 17 5 19 8 8 15 -9 7 -2 8 21 4 26 -5 32 -3 27 9 -3 8
-1 17 4 20 6 4 10 15 10 26 0 10 6 19 14 19 21 0 5 50 -21 67 -19 13 -24 11
-56 -17z m31 -44 c5 -23 -14 -44 -28 -30 -12 12 -1 56 14 51 6 -2 13 -12 14
-21z"/>
<path d="M1306 563 c-6 -14 -5 -15 5 -6 7 7 10 15 7 18 -3 3 -9 -2 -12 -12z"/>
</g>
</svg>
