<svg width="4000" height="2000" xmlns="http://www.w3.org/2000/svg">
 <g>
  <title>Layer 1</title>
  <g stroke="null" id="svg_2">
   <metadata stroke="null">Created by potrace 1.16, written by Peter Selinger 2001-2019</metadata>
   <g stroke="null" id="svg_3" transform="translate(0 274) scale(0.1 -0.1)" fill="#000000">
    <path stroke="null" id="svg_4" d="m10888.97705,1997.77124c-15.65865,-70.37143 -20.87819,-3206.92668 -15.65865,-6966.77176l15.65865,-6836.08195l485.41803,-30.15919l480.19848,-30.15919l0,723.82044l0,713.76738l250.53834,-341.8041c401.90525,-552.91839 741.17591,-844.45718 1242.25259,-1075.6776c1377.96085,-613.23676 3027.33823,110.58368 3820.70963,1688.91436c229.66014,452.38778 464.53983,1276.73884 521.95487,1789.44498c36.53684,341.8041 62.63458,382.01634 292.29473,492.60002c438.44209,221.16736 433.22254,361.91022 -10.4391,573.02452c-234.87969,120.63674 -245.31879,130.6898 -281.85563,573.02452c-125.26917,1467.74701 -871.66463,2764.59197 -1972.9894,3428.09404c-344.49021,211.1143 -495.85712,241.27348 -1278.78943,241.27348c-788.15185,0 -929.07967,-30.15919 -1278.78943,-241.27348c-454.10074,-271.43267 -918.64057,-733.8735 -1148.30071,-1125.94291l-156.58646,-281.48573l0,3418.04098l0,3407.98792l-469.75938,0c-328.83157,0 -480.19848,-40.21225 -495.85712,-120.63674zm4227.83443,-6212.79213c234.87969,-110.58368 532.39397,-311.64491 662.88268,-452.38778c323.61202,-351.85716 715.07817,-1125.94291 829.90824,-1638.64906c167.02556,-733.8735 161.80601,-733.8735 -381.02705,-663.50207c-626.34584,80.42449 -2155.6736,-110.58368 -2609.77434,-321.69797c-558.49171,-251.32654 -469.75938,-452.38778 328.83157,-753.97963c203.5624,-70.37143 2333.13826,-231.22042 2719.38486,-191.00817c20.87819,0 0,-201.06123 -41.75639,-442.33471c-104.39097,-583.07758 -495.85712,-1347.11027 -892.54282,-1739.17967c-709.85862,-693.66126 -2025.18489,-743.92657 -2808.11719,-100.53062c-464.53983,382.01634 -876.88418,1045.51842 -1043.90974,1678.8613c-109.61052,432.28165 -193.1233,1296.84496 -161.80601,1668.80824c99.17142,995.25311 511.51577,2000.55928 1023.03154,2503.21236c662.88268,643.39595 1581.52325,824.35106 2374.89465,452.38778z"/>
    <path stroke="null" id="svg_5" d="m215,-5320.85767l0,-6534.4901l2818.55629,0l2818.55629,0l0,603.1837l0,603.1837l-2322.69916,0l-2322.69916,0l0,5931.3064l0,5931.3064l-495.85712,0l-495.85712,0l0,-6534.4901z"/>
    <path stroke="null" id="svg_6" d="m7433.63582,811.50996c-527.17442,-452.38778 -229.66014,-1538.11844 417.56389,-1528.06538c109.61052,10.05306 287.07518,90.47756 391.46615,201.06123c360.14886,361.91022 323.61202,1055.57148 -73.07368,1377.26945c-250.53834,201.06123 -469.75938,191.00817 -735.95636,-50.26531z"/>
    <path stroke="null" id="svg_7" d="m36960.62271,-2003.34731l0,-1206.3674l-678.54133,0l-678.54133,0l0,-502.65308l0,-492.60002l668.10223,-30.15919l662.88268,-30.15919l26.09774,-3116.44913c26.09774,-3106.39606 26.09774,-3116.44913 151.36691,-3438.1471c375.8075,-975.14698 1153.52026,-1327.00414 2213.08864,-1015.35923l401.90525,110.58368l0,552.91839c0,482.54696 -10.4391,532.81227 -88.73233,472.4939c-52.19549,-40.21225 -344.49021,-100.53062 -647.22404,-130.6898c-626.34584,-50.26531 -814.24959,60.31837 -986.4947,613.23676c-99.17142,301.59185 -104.39097,522.75921 -104.39097,3166.71443l0,2834.9634l913.42102,0l913.42102,0l0,502.65308l0,502.65308l-913.42102,0l-913.42102,0l0,1206.3674l0,1206.3674l-469.75938,0l-469.75938,0l0,-1206.3674z"/>
    <path stroke="null" id="svg_8" d="m22371.98415,-3149.39634c-668.10223,-301.59185 -1148.30071,-764.03269 -1487.57137,-1407.42864c-104.39097,-201.06123 -104.39097,-191.00817 -104.39097,573.02452l0,774.08575l-495.85712,0l-495.85712,0l0,-6534.4901l0,-6534.4901l495.85712,0l495.85712,0l0,2975.70626l0,2965.6532l250.53834,-392.06941c762.05411,-1216.42047 2155.6736,-1658.75518 3387.48709,-1085.73066c1028.25109,472.4939 1654.59693,1286.7919 2025.18489,2583.63686c203.5624,723.82044 208.78195,774.08575 208.78195,1698.96743c-5.21955,844.45718 -20.87819,1025.41229 -156.58646,1548.1715c-302.73382,1186.26128 -929.07967,2111.14296 -1790.3052,2643.95523c-334.05112,201.06123 -537.61351,251.32654 -1210.93529,281.48573c-584.58945,40.21225 -897.76237,10.05306 -1122.20297,-90.47756zm1607.62099,-1025.41229c1169.1789,-502.65308 1852.93978,-2101.08989 1659.81648,-3880.48181c-120.04962,-1146.04903 -459.32028,-1930.18785 -1054.34883,-2422.78787c-929.07967,-794.19187 -2395.77284,-613.23676 -3152.6074,371.96328c-501.07667,663.50207 -782.9323,1588.38375 -782.9323,2573.58379c0,834.40412 151.36691,1477.80007 501.07667,2111.14296c657.66313,1196.31434 1785.08565,1698.96743 2828.99538,1246.57965z"/>
    <path stroke="null" id="svg_9" d="m30749.35978,-3099.13104c-579.3699,-180.95511 -1263.13078,-764.03269 -1696.35332,-1427.53476c-448.88119,-693.66126 -751.61501,-1759.2858 -793.3714,-2804.80421c-83.51278,-2020.6654 887.32328,-3900.58794 2333.13826,-4523.87776c970.83605,-412.17553 2192.21045,-191.00817 3016.89914,552.91839c386.2466,351.85716 845.56689,924.88168 845.56689,1065.62454c0,40.21225 -88.73233,140.74286 -193.1233,231.22042c-109.61052,90.47756 -260.97743,241.27348 -334.05112,331.75104c-135.70827,160.84899 -140.92781,160.84899 -365.36841,-191.00817c-756.83456,-1186.26128 -2249.62548,-1477.80007 -3189.14424,-623.28983c-454.10074,412.17553 -527.17442,512.70615 -756.83456,1005.30617c-260.97743,562.97145 -464.53983,1789.44498 -401.90525,2422.78787c93.95188,965.09392 443.66164,1849.76335 939.51876,2382.57562c349.70976,382.01634 981.27515,663.50207 1466.69318,663.50207c443.66164,0 1184.83755,-311.64491 1325.76536,-562.97145c41.75639,-80.42449 104.39097,-140.74286 140.92781,-140.74286c114.83007,0 537.61351,-1055.57148 610.6872,-1548.1715c130.48872,-824.35106 151.36691,-794.19187 -480.19848,-713.76738c-600.2481,70.37143 -2218.30819,-80.42449 -2521.04201,-241.27348c-99.17142,-50.26531 -245.31879,-120.63674 -323.61202,-150.79593c-83.51278,-40.21225 -146.14736,-130.6898 -146.14736,-211.1143c0,-150.79593 177.46466,-261.3796 715.07817,-472.4939c407.1248,-160.84899 3173.4856,-160.84899 3580.61039,0c532.39397,201.06123 715.07817,321.69797 715.07817,472.4939c0,140.74286 -52.19549,191.00817 -349.70976,301.59185c-151.36691,60.31837 -172.24511,100.53062 -172.24511,402.12247c0,432.28165 -167.02556,1266.68577 -354.92931,1739.17967c-156.58646,402.12247 -537.61351,1125.94291 -595.02855,1125.94291c-20.87819,0 -125.26917,100.53062 -234.87969,221.16736c-448.88119,512.70615 -876.88418,693.66126 -1738.10971,733.8735c-443.66164,20.10612 -913.42102,0 -1043.90974,-40.21225z"/>
    <path stroke="null" id="svg_10" d="m7365.78169,-7532.53124l0,-4332.86959l459.32028,30.15919l454.10074,30.15919l15.65865,4302.71041l10.4391,4292.65734l-469.75938,0l-469.75938,0l0,-4322.81653z"/>
   </g>
  </g>
  <polyline fill="none" stroke="#000" points="812,251 812,251 " id="svg_1" stroke-linecap="round"/>
 </g>

</svg>