<?xml version="1.0" standalone="no"?>
<!DOCTYPE svg PUBLIC "-//W3C//DTD SVG 20010904//EN"
 "http://www.w3.org/TR/2001/REC-SVG-20010904/DTD/svg10.dtd">
<svg version="1.0" xmlns="http://www.w3.org/2000/svg"
 width="620.000000pt" height="619.000000pt" viewBox="0 0 620.000000 619.000000"
 preserveAspectRatio="xMidYMid meet">

<g transform="translate(0.000000,619.000000) scale(0.100000,-0.100000)"
fill="#000000" stroke="none">
<path d="M1334 4377 c10 -83 25 -341 46 -782 38 -793 66 -1111 121 -1357 48
-221 147 -396 253 -450 31 -16 54 -19 105 -16 81 4 151 36 261 119 146 111
268 280 527 731 156 274 196 334 212 324 13 -8 19 -77 36 -366 31 -544 62
-721 154 -882 169 -296 339 -341 578 -154 157 123 376 418 860 1156 491 750
673 1010 703 1010 4 0 52 -35 106 -78 105 -83 130 -101 122 -86 -3 5 -61 185
-128 399 -67 215 -124 392 -126 394 -6 6 -854 -72 -853 -78 0 -3 56 -46 125
-96 68 -49 123 -96 121 -103 -2 -14 -928 -1294 -932 -1290 -2 2 -27 242 -55
533 -28 292 -55 533 -58 536 -6 6 -712 199 -726 199 -3 0 -145 -200 -317 -445
-171 -245 -313 -445 -314 -443 -2 2 -24 244 -50 538 -26 294 -50 538 -53 541
-4 4 -153 45 -332 93 -179 47 -340 90 -358 95 l-33 10 5 -52z"/>
</g>
</svg>
